{"glyphs":{"0":{"ha":967,"x_min":53,"x_max":915,"o":"m 53 575 q 165 217 53 372 q 483 -24 276 61 q 797 269 681 86 q 915 656 915 454 q 804 1022 915 867 q 483 1264 693 1176 q 53 575 53 968 m 768 507 q 632 156 768 299 q 310 374 424 235 q 196 700 196 514 q 324 1078 196 906 q 647 872 528 1028 q 768 507 768 715 z "},"1":{"ha":967,"x_min":229,"x_max":788,"o":"m 443 1264 l 229 1078 l 261 1042 l 321 1090 q 388 1007 375 1054 q 396 900 396 979 l 396 204 l 332 129 l 550 -24 l 788 168 l 754 204 l 665 136 q 654 143 654 142 q 632 157 640 150 q 619 169 624 164 q 599 203 603 183 q 594 288 594 221 l 594 960 q 567 1149 594 1093 q 443 1264 539 1206 z "},"2":{"ha":967,"x_min":63,"x_max":914,"o":"m 457 1264 l 94 967 l 228 838 l 585 1129 q 669 932 669 1049 q 608 700 669 807 q 383 442 547 596 q 154 196 218 289 q 63 -10 89 104 l 86 -24 q 428 51 258 51 q 746 -24 589 51 l 914 165 q 551 233 714 233 q 194 156 394 233 q 300 261 251 221 q 369 313 324 282 q 483 388 415 344 q 796 649 710 531 q 883 925 883 767 q 883 961 883 943 q 882 999 883 979 l 457 1264 z "},"3":{"ha":967,"x_min":29,"x_max":879,"o":"m 174 408 l 29 272 l 386 -24 l 404 -19 q 769 138 660 51 q 879 357 879 225 q 798 553 879 469 q 571 674 717 638 q 829 1029 829 769 l 829 1068 l 396 1264 l 115 1051 l 231 925 l 418 1064 q 449 1087 433 1075 q 479 1110 464 1099 q 549 1139 522 1139 q 603 1049 603 1139 q 523 797 603 879 q 265 700 443 714 q 251 699 256 699 q 246 699 247 699 l 246 636 l 269 638 q 313 640 293 639 q 350 640 332 640 q 474 617 418 640 q 569 548 529 593 q 629 440 608 503 q 650 297 650 376 q 560 93 650 138 l 174 408 z "},"4":{"ha":967,"x_min":44,"x_max":917,"o":"m 82 388 l 508 388 l 508 208 l 443 115 l 654 -24 l 883 157 l 858 190 q 840 181 844 183 q 786 154 806 154 q 719 181 767 154 q 699 190 717 183 l 699 388 l 917 388 l 883 558 l 699 558 l 699 994 q 671 1178 699 1129 q 550 1264 643 1226 l 44 571 l 82 388 m 508 917 l 508 558 l 85 558 l 457 1068 q 504 1001 493 1043 q 508 917 508 978 z "},"5":{"ha":967,"x_min":38,"x_max":853,"o":"m 174 339 l 38 185 l 401 -24 q 744 172 636 54 q 853 469 853 290 q 835 594 853 538 q 782 701 818 651 q 688 794 746 751 q 551 879 631 838 l 176 629 l 251 1047 l 714 1047 l 788 1238 l 239 1238 l 114 531 l 372 704 q 688 335 688 606 q 575 107 688 192 l 174 339 z "},"6":{"ha":967,"x_min":67,"x_max":903,"o":"m 718 926 l 854 1086 l 536 1264 q 176 903 289 1081 q 67 518 67 729 q 176 184 67 325 q 486 -24 285 43 l 510 -10 q 903 497 903 199 q 657 824 903 715 l 247 578 l 247 614 q 394 1101 247 874 l 718 926 m 644 136 q 378 286 486 178 q 253 528 269 394 l 489 674 q 597 617 549 650 q 678 546 644 585 q 731 464 713 507 q 749 378 749 421 q 644 136 749 244 z "},"7":{"ha":967,"x_min":32,"x_max":874,"o":"m 204 1238 l 32 892 l 82 892 q 192 1022 133 996 q 417 1050 251 1050 l 692 1050 l 661 1014 q 289 478 407 719 q 164 -24 167 226 l 425 69 q 871 1185 440 729 l 874 1238 l 204 1238 z "},"8":{"ha":967,"x_min":85,"x_max":903,"o":"m 478 -24 q 503 -24 492 -24 q 526 -22 515 -24 l 551 -1 q 831 250 767 168 q 903 457 903 340 q 887 553 903 507 q 842 638 871 600 q 771 706 813 676 q 679 751 729 735 q 760 819 726 788 q 814 883 793 851 q 844 945 835 914 q 853 1011 853 976 q 746 1196 853 1126 q 461 1265 639 1265 q 435 1264 451 1265 q 396 1260 419 1263 q 104 792 104 969 q 265 583 104 640 q 85 278 85 429 q 197 63 85 147 q 478 -24 313 -24 m 236 933 q 289 1072 236 1003 q 628 1036 540 1068 q 714 915 714 1004 q 613 767 714 839 q 396 796 542 781 q 236 933 236 813 m 221 396 q 321 571 221 476 q 650 517 575 535 q 760 457 706 503 q 813 350 813 413 q 747 227 813 274 q 575 181 681 181 q 321 242 424 181 q 221 396 221 304 z "},"9":{"ha":967,"x_min":67,"x_max":893,"o":"m 257 318 l 124 151 l 457 -24 q 790 314 688 144 q 893 689 893 483 q 792 1033 893 894 q 475 1264 692 1171 q 160 1014 253 1132 q 67 754 67 899 q 306 407 67 528 l 710 654 q 714 625 713 640 q 715 594 715 610 q 575 146 715 353 l 257 318 m 313 1089 q 567 951 460 1057 q 700 707 675 844 l 471 568 q 287 703 354 619 q 219 882 219 786 q 313 1089 219 1001 z "},"\u0007":{"ha":696,"x_min":88,"x_max":608,"o":"m 88 0 l 608 0 l 608 1142 l 88 1142 l 88 0 m 174 88 l 174 1054 l 521 1054 l 521 88 l 174 88 z "},"­":{"ha":696,"x_min":88,"x_max":608,"o":"m 88 0 l 608 0 l 608 1142 l 88 1142 l 88 0 m 174 88 l 174 1054 l 521 1054 l 521 88 l 174 88 z "},"¯":{"ha":696,"x_min":88,"x_max":608,"o":"m 88 0 l 608 0 l 608 1142 l 88 1142 l 88 0 m 174 88 l 174 1054 l 521 1054 l 521 88 l 174 88 z "},"±":{"ha":696,"x_min":88,"x_max":608,"o":"m 88 0 l 608 0 l 608 1142 l 88 1142 l 88 0 m 174 88 l 174 1054 l 521 1054 l 521 88 l 174 88 z "},"µ":{"ha":696,"x_min":88,"x_max":608,"o":"m 88 0 l 608 0 l 608 1142 l 88 1142 l 88 0 m 174 88 l 174 1054 l 521 1054 l 521 88 l 174 88 z "},"‛":{"ha":696,"x_min":88,"x_max":608,"o":"m 88 0 l 608 0 l 608 1142 l 88 1142 l 88 0 m 174 88 l 174 1054 l 521 1054 l 521 88 l 174 88 z "},"‟":{"ha":696,"x_min":88,"x_max":608,"o":"m 88 0 l 608 0 l 608 1142 l 88 1142 l 88 0 m 174 88 l 174 1054 l 521 1054 l 521 88 l 174 88 z "},"‡":{"ha":696,"x_min":88,"x_max":608,"o":"m 88 0 l 608 0 l 608 1142 l 88 1142 l 88 0 m 174 88 l 174 1054 l 521 1054 l 521 88 l 174 88 z "},"\u0005":{"ha":776,"x_min":76,"x_max":688,"o":"m 404 982 l 688 1276 l 644 1299 l 490 1143 l 201 1299 l 76 1171 l 404 982 z "},"\u0006":{"ha":429,"x_min":138,"x_max":347,"o":"m 185 1319 l 138 1093 l 185 1090 l 347 1313 l 185 1319 z "},"\b":{"ha":592,"x_min":132,"x_max":499,"o":"m 132 1296 q 314 1092 132 1153 q 450 1190 401 1129 q 499 1321 499 1250 q 314 1529 499 1474 q 132 1296 132 1435 m 422 1276 q 375 1176 422 1215 q 251 1240 296 1197 q 207 1336 207 1283 q 251 1444 207 1397 q 376 1384 331 1429 q 422 1276 422 1339 z "},"\r":{"ha":489,"x_min":90,"x_max":489,"o":"m 285 -24 l 489 136 l 465 168 l 407 121 l 351 168 l 351 778 l 418 839 l 253 975 l 90 844 l 158 786 l 158 303 q 154 215 158 233 q 96 154 142 168 l 96 136 q 285 -24 176 86 z "},"\u0019":{"ha":964,"x_min":0,"x_max":953,"o":"m 868 1426 l 0 -254 l 85 -297 l 953 1383 l 868 1426 z "},"\u001a":{"ha":872,"x_min":85,"x_max":872,"o":"m 667 -24 l 872 136 l 849 168 l 789 121 l 735 168 l 735 778 l 801 839 l 636 975 l 486 854 l 486 935 l 356 935 l 356 1176 l 521 1135 l 551 1288 l 361 1336 q 244 1241 294 1279 q 158 1181 193 1203 l 158 935 l 85 935 l 85 831 l 158 831 l 158 315 q 156 255 158 279 q 151 217 154 231 q 96 142 142 168 l 96 121 q 333 -24 222 79 l 507 115 q 587 52 547 88 q 667 -24 626 17 m 704 1369 l 656 1143 l 704 1139 l 867 1363 l 704 1369 m 481 138 l 454 121 q 404 158 429 140 q 356 194 379 176 l 356 831 l 486 831 l 486 833 l 542 786 l 542 303 q 536 207 542 224 q 481 136 525 165 l 481 138 z "},"\u001b":{"ha":951,"x_min":85,"x_max":953,"o":"m 515 167 l 454 121 q 404 158 429 140 q 356 194 379 176 l 356 831 l 486 831 l 486 935 l 356 935 l 356 1176 l 521 1135 l 543 1249 q 593 1060 593 1203 l 593 289 q 576 201 593 226 q 515 167 560 175 m 767 -24 l 953 128 l 926 158 l 885 128 l 789 194 l 789 1068 q 808 1218 789 1172 q 892 1310 826 1264 l 881 1342 q 663 1215 743 1307 q 619 1251 636 1238 q 592 1272 601 1265 q 554 1288 576 1282 q 504 1300 532 1294 l 361 1336 q 244 1241 294 1279 q 158 1181 193 1203 l 158 935 l 85 935 l 85 831 l 158 831 l 158 315 q 156 255 158 279 q 151 217 154 231 q 96 142 142 168 l 96 121 q 333 -24 222 79 l 526 132 l 526 131 q 767 -24 672 74 z "},"\u001c":{"ha":1257,"x_min":96,"x_max":1301,"o":"m 632 349 q 461 189 568 261 q 510 260 489 226 q 550 326 532 294 l 632 349 m 1100 640 l 893 585 q 914 742 914 649 q 893 997 914 797 q 885 1094 885 1082 q 933 1231 885 1186 q 1094 1288 982 1275 l 1074 1333 l 1051 1333 q 798 1247 889 1333 q 707 1006 707 1161 q 708 969 707 986 q 710 933 708 951 l 719 829 q 730 719 726 758 q 733 669 733 681 q 730 602 733 635 q 719 539 726 569 l 618 510 q 626 569 624 538 q 628 632 628 600 q 624 747 628 686 q 613 874 619 807 q 600 1017 600 992 q 635 1169 600 1110 q 768 1304 672 1232 l 750 1333 q 575 1278 640 1278 q 456 1307 536 1278 q 313 1339 357 1339 q 161 1275 225 1339 q 96 1128 96 1213 q 113 1049 96 1099 l 147 1064 q 143 1101 143 1099 q 167 1169 143 1143 q 233 1194 192 1194 q 318 1176 268 1194 q 422 1154 381 1154 q 588 1182 485 1154 q 463 1022 496 1094 q 429 833 429 949 q 429 819 429 826 q 431 804 429 813 q 435 768 435 781 q 367 778 397 778 q 201 688 276 778 l 226 667 q 313 696 264 696 q 456 518 453 696 q 360 551 403 551 q 251 490 306 551 l 269 469 q 322 481 299 481 q 396 451 364 481 l 163 388 q 149 295 156 339 q 132 215 142 251 l 438 297 q 178 18 403 158 l 201 -19 q 679 124 461 124 q 1082 -19 893 124 l 1301 185 l 1268 221 l 1181 139 q 831 265 1025 265 q 588 221 733 265 l 621 250 q 767 385 717 329 l 1075 468 q 1100 640 1085 574 z "},"\u001d":{"ha":518,"x_min":25,"x_max":518,"o":"m 496 757 l 356 718 l 356 1068 q 374 1218 356 1176 q 457 1310 392 1264 l 446 1342 q 228 1215 308 1307 q 154 1269 193 1246 q 72 1310 115 1292 l 63 1281 q 140 1204 121 1249 q 158 1060 158 1164 l 158 665 l 51 638 q 40 547 46 590 q 25 465 33 504 l 158 501 l 158 289 q 150 204 158 226 q 93 146 138 169 l 93 115 q 332 -24 232 79 l 518 128 l 492 158 l 451 128 l 356 194 l 356 556 l 469 585 q 496 757 474 667 z "},"\u001e":{"ha":1118,"x_min":96,"x_max":1118,"o":"m 918 -24 l 1118 226 l 1083 257 l 989 139 q 717 211 843 211 q 268 103 528 211 l 297 129 q 663 561 510 317 l 968 561 l 997 629 l 704 629 q 747 708 732 682 q 761 733 761 733 l 1042 733 l 1074 801 l 793 801 l 819 850 q 972 1125 904 1010 q 1093 1313 1040 1240 l 1068 1342 q 693 1256 900 1256 q 365 1338 554 1256 l 146 1081 l 181 1050 l 292 1178 q 549 1124 410 1124 q 928 1219 692 1124 q 947 1228 939 1225 q 963 1235 956 1232 l 932 1203 q 793 1056 844 1111 q 725 981 742 1000 q 656 899 692 944 q 582 801 621 854 l 299 801 l 268 733 l 540 733 l 483 629 l 221 629 l 193 561 l 447 561 q 400 477 428 529 q 335 351 372 425 q 96 10 219 131 l 124 -24 q 536 71 344 71 q 918 -24 733 71 m 746 1464 l 1029 1757 l 986 1779 l 832 1624 l 544 1779 l 419 1651 l 746 1464 z "},"\u001f":{"ha":628,"x_min":8,"x_max":619,"o":"m 281 975 l 40 793 l 64 761 l 163 831 l 340 688 l 64 396 l 89 375 q 215 414 161 414 q 317 371 278 414 q 356 257 356 328 q 239 43 356 147 q 144 -53 167 -21 q 122 -132 122 -87 q 164 -229 122 -190 q 268 -268 206 -268 q 335 -226 335 -268 q 300 -199 335 -199 q 279 -203 292 -199 l 251 -208 q 236 -210 249 -210 q 168 -137 168 -210 q 196 -71 168 -101 q 313 7 226 -40 q 513 156 456 89 q 568 314 568 219 q 494 489 568 419 q 314 560 421 560 q 292 559 303 560 q 269 557 281 558 l 521 821 l 506 842 q 485 840 492 840 q 478 839 479 839 q 369 901 446 839 l 281 975 m 335 1093 l 619 1389 l 575 1410 l 422 1256 l 133 1410 l 8 1282 l 335 1093 z "}," ":{"ha":733,"x_min":0,"x_max":0,"o":""},"!":{"ha":563,"x_min":117,"x_max":446,"o":"m 279 1224 l 117 1063 q 257 321 236 758 l 304 321 q 446 1057 315 747 l 279 1224 m 279 256 l 138 115 l 279 -24 l 418 115 l 279 256 z "},"\"":{"ha":700,"x_min":67,"x_max":635,"o":"m 81 935 q 318 1217 264 1003 l 190 1342 l 67 1214 l 79 1203 q 146 1086 146 1144 q 67 972 146 1032 l 81 935 m 399 935 q 635 1217 585 1004 l 507 1342 l 383 1214 l 396 1203 q 464 1086 464 1143 q 383 972 464 1036 l 399 935 z "},"#":{"ha":1113,"x_min":71,"x_max":1074,"o":"m 1074 978 l 854 978 l 956 1431 l 842 1431 l 740 978 l 500 978 l 603 1431 l 489 1431 l 386 978 l 178 978 l 154 871 l 361 871 l 308 632 l 96 632 l 71 522 l 282 522 l 165 7 l 279 7 l 399 522 l 638 522 l 521 7 l 635 7 l 751 522 l 967 522 l 994 632 l 776 632 l 829 871 l 1049 871 l 1074 978 m 715 871 l 663 632 l 422 632 l 475 871 l 715 871 z "},"$":{"ha":990,"x_min":19,"x_max":906,"o":"m 19 25 l 61 -22 q 306 60 160 60 q 454 38 375 60 q 456 -8 456 15 q 456 -58 456 -32 q 456 -110 456 -86 q 454 -157 456 -135 l 515 -115 q 507 19 508 -36 q 596 -22 565 -4 q 821 158 736 56 q 906 361 906 264 q 883 472 906 421 q 812 568 860 522 q 688 656 764 614 q 507 739 613 697 l 507 1038 q 699 953 586 1018 l 801 1124 q 619 1205 693 1176 q 507 1239 546 1233 l 515 1418 l 454 1382 l 454 1239 q 201 1094 306 1211 q 96 846 96 976 q 165 675 96 736 q 209 643 185 660 q 265 611 233 626 q 428 536 363 567 q 454 526 438 531 l 454 246 q 388 250 422 250 q 19 25 154 250 m 735 149 q 629 201 686 179 q 507 238 572 224 l 507 508 q 771 265 771 417 q 735 149 771 210 m 378 1056 q 454 1047 418 1056 l 454 758 q 438 764 444 761 q 429 768 432 767 q 272 856 318 814 q 225 953 225 899 q 266 1027 225 999 q 378 1056 307 1056 z "},"%":{"ha":1021,"x_min":67,"x_max":956,"o":"m 67 924 q 289 622 67 715 q 439 767 382 672 q 497 964 497 863 q 438 1149 497 1068 q 274 1264 378 1229 q 67 924 67 1119 m 800 1250 l 164 18 l 225 -12 l 861 1219 l 800 1250 m 524 274 q 749 -24 524 68 q 897 118 842 25 q 956 315 956 211 q 940 414 956 367 q 896 500 925 461 q 826 568 867 539 q 735 614 785 597 q 524 274 524 468 m 404 879 q 364 736 404 797 q 280 777 318 751 q 215 836 242 803 q 173 908 188 869 q 158 988 158 947 q 201 1144 158 1072 q 404 879 404 1075 m 864 229 q 821 86 864 147 q 676 188 732 115 q 619 340 619 261 q 661 496 619 426 q 864 229 864 426 z "},"&":{"ha":1426,"x_min":40,"x_max":1389,"o":"m 40 392 l 318 -24 l 724 257 q 740 229 736 236 q 840 72 810 107 q 940 6 871 36 q 1092 -26 1011 -26 q 1369 164 1290 -26 l 1339 183 q 1174 117 1264 117 q 1092 130 1129 117 q 1020 174 1054 143 q 952 253 986 204 q 883 372 918 301 l 1049 488 q 1207 414 1126 414 q 1389 508 1318 414 l 1369 532 q 1333 526 1347 526 q 1156 614 1251 526 l 863 408 l 674 746 l 704 765 q 838 855 785 814 q 919 928 892 896 q 975 1082 975 993 q 800 1342 975 1239 l 447 1174 q 336 1110 364 1135 q 313 1046 313 1086 q 367 893 313 989 l 488 682 l 40 392 m 704 297 l 451 117 l 219 456 l 507 643 l 704 297 m 821 1007 q 653 788 821 889 l 532 996 q 500 1083 500 1051 q 544 1161 500 1125 q 653 1197 589 1197 q 771 1140 722 1197 q 821 1007 821 1083 z "},"'":{"ha":383,"x_min":67,"x_max":318,"o":"m 81 935 q 318 1217 264 1003 l 190 1342 l 67 1214 l 79 1203 q 146 1086 146 1144 q 67 972 146 1032 l 81 935 z "},"(":{"ha":614,"x_min":111,"x_max":647,"o":"m 111 444 q 488 -311 111 -43 l 606 -161 q 354 163 426 -1 q 282 582 282 325 q 350 960 282 786 q 397 1064 372 1015 q 453 1154 422 1113 q 531 1253 483 1197 q 647 1381 579 1310 l 626 1408 q 242 967 374 1214 q 111 444 111 721 z "},")":{"ha":614,"x_min":14,"x_max":553,"o":"m 553 653 q 175 1408 553 1135 l 54 1256 q 306 933 235 1100 q 378 513 378 771 q 300 103 378 274 q 190 -79 261 18 q 14 -286 119 -176 l 35 -311 q 419 126 286 -122 q 553 653 553 374 z "},"*":{"ha":749,"x_min":79,"x_max":667,"o":"m 457 1278 l 375 1342 l 289 1278 q 346 1083 338 1174 q 271 1117 304 1097 q 185 1171 263 1119 l 163 1186 l 79 1119 l 121 1028 q 236 1036 208 1036 q 329 1028 260 1036 q 174 893 264 946 l 207 789 l 306 796 q 375 985 331 911 q 429 819 411 924 q 431 810 429 818 q 435 796 433 803 l 540 789 l 575 885 q 561 897 564 896 l 497 944 q 425 1024 469 965 q 513 1036 475 1036 q 533 1034 511 1036 q 603 1029 556 1032 q 619 1028 614 1028 q 626 1028 626 1028 l 667 1125 l 582 1186 q 404 1078 481 1099 q 457 1278 406 1160 z "},"+":{"ha":994,"x_min":53,"x_max":975,"o":"m 975 411 l 975 513 l 563 513 l 563 924 l 464 924 l 464 513 l 53 513 l 53 411 l 464 411 l 464 0 l 563 0 l 563 411 l 975 411 z "},",":{"ha":461,"x_min":115,"x_max":394,"o":"m 133 -183 q 394 132 343 -103 l 253 269 l 115 128 l 129 114 q 204 -15 204 36 q 115 -140 204 -68 l 133 -183 z "},"-":{"ha":593,"x_min":63,"x_max":515,"o":"m 515 579 l 133 579 q 100 500 118 540 q 63 419 82 460 l 444 419 q 515 579 471 499 z "},".":{"ha":461,"x_min":125,"x_max":411,"o":"m 268 260 l 125 115 l 268 -24 l 411 115 l 268 260 z "},"/":{"ha":964,"x_min":0,"x_max":953,"o":"m 868 1426 l 0 -254 l 85 -297 l 953 1383 l 868 1426 z "},":":{"ha":444,"x_min":101,"x_max":385,"o":"m 242 260 l 101 115 l 242 -24 l 385 115 l 242 260 m 242 842 l 101 699 l 242 558 l 385 699 l 242 842 z "},";":{"ha":461,"x_min":90,"x_max":374,"o":"m 229 842 l 90 699 l 229 558 l 374 699 l 229 842 m 107 -183 q 372 132 317 -101 l 229 269 l 90 128 l 104 114 q 178 -15 178 40 q 90 -140 178 -69 l 107 -183 z "},"<":{"ha":526,"x_min":67,"x_max":460,"o":"m 340 114 l 454 226 l 208 569 l 460 874 l 404 924 l 67 499 l 340 114 z "},"=":{"ha":646,"x_min":38,"x_max":626,"o":"m 568 419 l 107 419 q 76 344 93 383 q 38 261 58 304 l 497 261 q 568 419 524 342 m 626 739 l 167 739 q 96 579 132 653 l 557 579 q 587 656 569 617 q 626 739 604 696 z "},">":{"ha":526,"x_min":101,"x_max":492,"o":"m 218 924 l 106 811 l 350 468 l 101 164 l 154 114 l 492 539 l 218 924 z "},"?":{"ha":631,"x_min":67,"x_max":565,"o":"m 207 1224 l 67 985 l 89 968 q 219 1036 157 1036 q 325 990 281 1036 q 369 883 369 943 q 342 757 369 828 l 290 631 q 243 365 243 515 l 243 324 l 282 324 l 285 353 q 318 531 292 468 q 356 594 329 557 q 425 679 383 631 q 494 765 467 728 q 536 831 522 803 q 565 949 565 885 q 472 1151 565 1079 q 207 1224 378 1222 m 260 253 l 122 114 l 260 -24 l 399 114 l 260 253 z "},"@":{"ha":1790,"x_min":90,"x_max":1707,"o":"m 1057 324 q 1265 151 1079 151 q 1583 322 1456 151 q 1707 726 1707 488 q 1488 1200 1707 1038 q 1007 1342 1301 1342 q 351 1104 611 1342 q 90 521 90 868 q 282 -10 90 208 q 874 -261 500 -261 q 1563 -60 1247 -261 l 1517 17 q 894 -157 1236 -157 q 454 15 635 -157 q 263 499 263 200 q 499 1058 263 847 q 1007 1246 711 1246 q 1424 1128 1264 1246 q 1610 725 1610 992 q 1508 386 1610 521 q 1319 271 1418 271 q 1250 357 1250 271 q 1288 533 1250 397 l 1404 946 l 1182 946 l 1150 833 q 1040 954 1110 921 q 903 978 989 978 q 617 817 746 978 q 486 464 488 657 q 564 236 483 324 q 768 149 644 149 q 1057 324 946 149 m 719 388 q 781 650 719 490 q 979 861 863 861 q 1072 810 1043 861 q 1090 706 1097 769 q 1024 453 1075 575 q 828 263 944 263 q 744 304 771 263 q 719 388 719 338 z "},"A":{"ha":1292,"x_min":96,"x_max":1292,"o":"m 1067 -32 l 1292 157 l 1258 193 q 1186 149 1206 149 q 1144 181 1156 149 q 1135 230 1139 196 q 1129 315 1132 264 l 1099 985 q 1094 1057 1094 1007 q 1124 1207 1094 1158 q 1169 1256 1139 1231 q 1247 1308 1200 1282 l 1225 1342 q 1171 1315 1194 1328 q 1131 1290 1147 1301 q 1092 1258 1115 1279 q 1036 1207 1068 1238 q 1025 1197 1029 1200 q 1019 1193 1021 1194 q 596 1349 801 1349 q 246 1207 396 1349 q 96 879 96 1067 q 161 658 96 761 q 347 475 226 554 l 204 269 q 121 136 139 175 q 103 56 103 99 q 123 -1 103 24 q 169 -26 143 -26 q 219 19 219 -26 q 200 74 219 42 q 181 121 181 106 q 194 151 181 138 q 225 164 207 164 q 610 -32 328 164 l 938 229 l 942 178 q 969 56 946 96 q 1067 -32 992 18 m 372 438 l 932 438 l 936 285 l 744 136 l 292 325 l 372 438 m 833 1100 q 867 1076 850 1089 q 901 1047 883 1063 l 921 575 l 468 575 l 833 1100 m 532 943 q 644 903 585 943 l 375 518 q 169 853 169 661 q 282 1089 169 993 q 558 1186 393 1186 q 797 1124 690 1186 l 742 1042 q 593 1064 658 1064 q 361 879 433 1064 l 394 864 q 532 943 458 943 z "},"B":{"ha":1582,"x_min":96,"x_max":1485,"o":"m 1457 979 l 1188 1342 q 988 1267 1069 1300 q 863 1207 907 1233 q 724 1064 758 1147 q 696 829 696 992 l 696 542 q 640 306 696 386 q 443 169 585 226 q 557 319 529 254 q 583 515 583 382 l 583 863 q 650 1119 583 1032 q 907 1292 715 1207 l 875 1338 q 667 1285 761 1285 q 620 1287 643 1285 q 574 1292 597 1289 l 460 1319 q 342 1333 410 1333 q 174 1263 238 1333 q 96 1067 111 1193 l 142 1067 q 250 1186 161 1186 q 324 1172 282 1186 q 451 1151 392 1151 q 635 1185 507 1151 q 443 1013 493 1092 q 388 789 393 933 q 297 801 331 801 q 104 603 136 801 l 142 593 q 261 675 175 675 q 366 628 329 675 q 403 497 403 582 l 403 489 q 190 285 194 482 l 225 285 q 321 374 246 374 q 382 348 356 374 q 408 289 408 322 q 279 94 408 217 q 213 27 239 56 q 174 -21 186 -1 q 149 -110 149 -61 q 167 -172 149 -147 q 215 -197 186 -197 q 269 -144 269 -197 q 261 -111 269 -124 l 246 -87 q 233 -51 233 -69 q 325 50 233 8 q 547 93 415 93 q 729 67 650 93 q 816 31 769 53 q 914 -24 863 8 q 1450 201 1133 163 l 1450 578 q 1451 624 1450 607 q 1455 652 1451 642 q 1465 669 1458 663 q 1485 682 1472 675 l 1485 708 l 1246 822 l 1457 979 m 1090 147 q 1049 167 1068 158 q 1010 186 1029 176 l 1010 343 q 1136 365 1072 365 q 1253 343 1199 365 l 1253 210 q 1185 188 1221 201 q 1111 157 1150 175 l 1090 147 m 1136 408 q 1010 392 1076 408 l 1010 528 q 1128 508 1075 508 q 1253 528 1179 508 l 1253 392 q 1136 408 1196 408 m 1132 551 q 1010 574 1072 551 l 1010 647 l 1081 700 l 1253 614 l 1253 578 q 1132 551 1196 551 m 1010 935 l 967 935 l 967 200 q 778 229 867 229 q 694 224 738 229 q 604 207 651 218 q 704 263 664 239 q 767 304 744 288 q 842 392 810 338 q 885 508 875 446 q 889 557 888 526 q 890 632 890 588 l 890 994 q 921 1157 890 1110 q 1047 1239 953 1207 l 1288 907 l 1010 699 l 1010 935 z "},"C":{"ha":1247,"x_min":96,"x_max":1267,"o":"m 1267 332 l 1246 357 q 1022 225 1144 272 q 793 176 897 176 l 767 176 l 767 1165 q 1057 1068 922 1092 l 1235 1238 l 1226 1238 q 818 1342 1024 1238 l 435 1015 l 435 594 q 426 482 435 508 q 360 393 411 428 q 253 725 253 553 q 313 981 253 874 q 524 1215 374 1090 l 508 1238 q 204 971 313 1135 q 96 610 96 806 q 267 161 96 342 q 693 -18 439 -18 q 1267 332 1043 -18 m 626 1100 l 725 1188 l 725 181 q 386 356 521 201 l 465 422 q 545 497 514 463 q 592 557 576 531 q 610 596 603 576 q 619 635 617 615 q 624 694 622 654 q 626 797 626 735 l 626 1100 z "},"D":{"ha":1522,"x_min":69,"x_max":1415,"o":"m 1128 -24 l 1415 175 l 1415 225 q 1368 854 1415 649 q 1190 1163 1315 1076 q 833 1243 1072 1243 q 665 1240 758 1243 q 456 1232 571 1238 q 374 1228 407 1229 q 322 1226 340 1226 q 200 1235 229 1226 q 114 1317 140 1254 l 90 1317 l 90 1296 q 157 1101 90 1157 q 388 1046 222 1046 q 579 1050 460 1046 l 619 1051 q 410 876 460 963 q 357 596 361 790 l 357 565 q 269 585 306 585 q 69 444 140 585 l 96 422 q 190 469 142 469 q 288 422 249 469 q 329 313 329 376 q 282 178 329 242 q 217 109 258 146 q 117 29 176 72 q 109 24 114 28 q 96 14 104 21 l 121 -19 q 222 49 174 15 q 314 115 269 83 q 504 310 461 229 q 547 557 547 390 l 547 692 q 549 826 547 775 q 554 897 551 876 q 570 942 558 918 q 603 988 582 967 q 655 1028 625 1010 q 725 1057 685 1046 q 690 990 703 1022 q 672 931 678 958 q 663 706 663 878 l 663 565 q 660 465 663 506 q 656 403 658 425 q 646 361 653 382 q 628 321 639 340 q 372 86 563 201 l 176 -31 q 161 -40 168 -36 q 147 -49 154 -44 l 174 -85 q 415 15 303 -14 q 669 44 528 44 q 1128 -24 886 44 m 882 217 l 856 218 l 856 376 q 1039 439 944 439 q 1217 374 1118 439 q 1221 271 1219 325 q 1222 154 1222 217 q 1188 163 1189 161 q 1038 200 1064 193 q 882 217 981 211 m 1040 483 q 856 425 957 483 l 856 663 q 1028 606 944 606 q 1203 663 1100 606 q 1211 513 1208 571 q 1215 428 1214 454 q 1040 483 1118 483 m 1025 654 q 856 715 954 654 l 856 1063 q 883 1058 882 1058 q 1117 969 1053 1042 q 1196 715 1181 899 q 1025 654 1110 654 m 781 1063 l 813 1063 l 813 219 q 582 190 683 217 q 682 331 657 258 q 708 536 708 400 l 708 700 q 711 849 708 790 q 719 938 714 908 q 781 1063 732 994 z "},"E":{"ha":1275,"x_min":96,"x_max":1275,"o":"m 769 169 l 769 751 l 1090 740 l 1194 924 l 967 928 l 1243 1208 l 1232 1238 q 1208 1235 1221 1236 q 1185 1235 1196 1235 q 824 1342 1040 1235 l 436 1032 l 436 578 q 424 474 436 500 q 365 401 413 444 q 256 751 256 557 q 539 1222 256 1032 l 521 1253 q 96 640 96 1029 q 275 172 96 364 q 717 -18 457 -18 q 1031 69 889 -18 q 1275 324 1174 156 l 1260 343 q 792 169 1028 169 l 769 169 m 1049 1071 l 769 789 l 769 1172 q 1049 1071 890 1100 m 624 1110 l 726 1193 l 726 175 q 388 369 515 208 l 497 460 q 604 571 585 531 q 624 706 624 613 l 624 1110 z "},"F":{"ha":1206,"x_min":-32,"x_max":1342,"o":"m 1143 800 l 1196 938 l 946 938 l 946 1142 q 1119 1099 1042 1099 q 1273 1162 1213 1099 q 1342 1338 1333 1225 l 1313 1342 q 1168 1246 1250 1246 q 953 1342 1086 1246 q 469 1092 829 1135 l 469 938 q 233 888 304 935 q 97 697 163 842 l 125 675 q 260 772 186 744 q 469 800 336 800 l 469 176 q 461 -10 469 32 q 422 -75 456 -51 l 396 -61 q 151 28 217 28 q 35 -30 85 28 q -32 -187 -15 -87 l 7 -199 q 90 -115 33 -115 q 260 -183 125 -115 q 292 -199 279 -192 l 583 -69 q 883 110 822 35 q 946 374 946 186 l 946 800 l 1143 800 m 653 1063 q 722 1086 693 1076 q 767 1101 751 1096 l 767 360 q 740 168 767 229 q 632 35 715 106 q 501 -53 582 -6 q 629 131 607 63 q 653 386 653 201 l 653 1063 z "},"G":{"ha":1443,"x_min":96,"x_max":1371,"o":"m 997 960 l 1294 1197 l 1282 1222 q 1197 1213 1242 1213 q 783 1342 1022 1213 l 744 1311 q 215 831 338 993 q 129 663 161 757 q 96 478 96 567 q 249 122 96 263 q 635 -18 401 -18 q 1143 169 915 -18 q 1371 592 1371 357 q 1269 847 1371 750 q 997 960 1169 946 m 1032 1051 l 644 744 l 644 1182 q 834 1112 738 1144 q 1032 1051 931 1079 m 644 679 q 758 742 703 715 l 758 67 q 417 236 549 79 l 501 304 q 570 358 543 336 q 610 394 597 381 q 640 449 636 421 q 644 531 644 488 l 644 679 m 1150 272 q 801 69 1049 81 l 801 257 q 851 286 829 275 q 888 304 872 297 q 986 318 925 318 q 1150 272 1060 318 m 985 364 q 801 314 899 364 l 801 497 q 1017 438 917 438 q 1214 497 1117 438 q 1171 314 1211 406 q 985 364 1071 364 m 1010 481 q 901 494 939 481 q 801 550 860 510 l 801 760 q 926 786 872 786 q 1111 719 1033 786 q 1208 550 1189 656 q 1115 493 1157 508 q 1010 481 1075 481 m 281 601 q 451 1006 281 831 l 451 497 q 440 357 451 394 q 386 271 429 322 q 281 601 281 431 z "},"H":{"ha":1571,"x_min":97,"x_max":1474,"o":"m 942 -24 l 1135 250 l 1099 274 q 964 186 1036 186 q 942 187 953 186 q 921 189 931 188 l 776 200 q 738 201 765 201 q 665 201 710 201 l 631 201 q 644 215 638 208 q 657 226 651 221 q 737 293 704 267 q 788 333 769 319 q 935 407 849 378 q 1090 436 1019 436 q 1286 394 1174 436 l 1286 388 q 1146 90 1286 268 l 1089 18 q 1014 -150 1014 -76 q 1044 -226 1014 -194 q 1121 -258 1075 -258 q 1179 -239 1156 -258 q 1203 -192 1203 -219 q 1154 -142 1203 -142 q 1142 -144 1144 -142 l 1119 -153 q 1104 -154 1117 -154 q 1068 -122 1068 -154 q 1156 -15 1068 -93 l 1343 143 q 1425 247 1389 182 q 1474 551 1474 336 q 1424 871 1474 768 q 1214 1078 1374 972 l 885 803 l 885 1032 q 929 1186 885 1138 q 1135 1301 976 1236 l 1121 1342 q 958 1283 1025 1311 q 850 1232 890 1256 q 731 1097 763 1182 q 704 868 704 1026 l 704 518 q 657 318 704 392 q 489 168 611 243 q 508 200 506 193 q 571 342 558 281 q 583 492 583 389 l 583 942 q 629 1149 583 1082 q 828 1290 675 1215 q 840 1296 835 1293 q 850 1301 844 1299 l 833 1342 l 810 1329 q 617 1281 701 1281 q 479 1301 560 1281 q 437 1313 451 1308 q 422 1317 422 1317 q 356 1326 378 1326 q 190 1258 260 1326 q 97 1074 121 1190 l 136 1063 q 265 1185 169 1185 q 367 1164 289 1185 q 461 1151 418 1151 q 578 1168 500 1151 q 435 1007 474 1092 q 406 905 415 964 q 394 771 396 846 l 365 769 q 204 728 254 763 q 124 601 154 693 l 151 589 q 279 661 207 661 q 422 464 413 661 q 246 282 269 458 l 278 274 q 356 350 311 350 q 405 328 385 350 q 425 274 425 307 q 300 69 425 190 l 247 18 q 176 -128 176 -51 q 194 -190 176 -165 q 239 -215 211 -215 q 289 -162 289 -215 q 278 -121 289 -150 l 263 -100 q 256 -68 256 -83 q 344 31 256 -8 q 558 72 433 72 q 942 -24 726 72 m 1101 475 q 885 436 1031 475 l 885 654 q 1093 614 997 614 q 1151 616 1126 614 q 1193 621 1176 618 q 1286 654 1232 626 l 1286 436 q 1101 475 1175 475 m 1089 657 q 885 700 976 657 l 885 750 l 1113 936 q 1243 829 1201 882 q 1290 707 1282 781 q 1194 665 1233 675 q 1089 657 1154 657 z "},"I":{"ha":1174,"x_min":97,"x_max":1154,"o":"m 97 -6 l 122 -15 q 269 90 182 90 q 457 42 324 90 q 700 -18 618 -18 q 951 97 857 -18 q 1046 408 1046 213 q 1035 571 1046 471 q 1006 810 1025 671 l 1003 833 q 983 992 989 926 q 976 1093 976 1057 q 1010 1222 976 1178 q 1125 1292 1043 1267 q 1154 1300 1143 1296 l 1135 1333 q 821 897 821 1292 q 829 788 821 861 q 853 600 838 714 q 879 384 871 474 q 888 236 888 294 q 739 47 888 47 q 665 63 699 47 q 640 81 654 69 q 606 111 625 93 q 497 199 544 167 q 685 261 632 211 q 739 426 739 311 q 738 485 739 458 q 733 532 736 513 l 715 679 q 701 826 706 760 q 696 946 696 893 q 733 1154 696 1072 q 868 1318 772 1238 l 850 1339 q 714 1307 783 1307 q 560 1329 647 1307 q 443 1347 492 1347 q 353 1331 394 1347 q 281 1287 313 1315 q 230 1218 250 1258 q 204 1128 210 1178 l 228 1124 q 283 1201 253 1179 q 365 1224 313 1224 q 385 1222 372 1224 q 417 1217 397 1219 l 489 1204 q 533 1200 507 1200 q 714 1246 599 1200 q 565 1044 608 1142 q 533 935 543 996 q 521 803 522 875 q 465 810 493 810 q 243 653 329 810 l 261 640 q 294 668 279 657 q 325 685 310 679 q 357 694 340 692 q 396 697 374 697 q 472 676 438 697 q 529 617 506 656 q 566 524 553 578 q 579 407 579 471 q 572 328 579 360 q 547 276 564 296 q 499 247 529 256 q 426 236 469 238 q 207 176 282 231 q 97 -6 138 125 z "},"J":{"ha":1156,"x_min":35,"x_max":1217,"o":"m 35 -215 l 64 -229 q 176 -161 115 -161 q 261 -176 207 -161 q 419 -207 353 -207 q 847 10 665 -207 q 1029 521 1029 228 q 1028 597 1029 557 q 1024 683 1026 638 l 1017 806 q 1015 838 1015 821 q 1015 875 1015 856 q 1054 1117 1015 1031 q 1217 1339 1093 1206 l 1193 1372 q 936 1278 1061 1278 q 653 1318 858 1278 q 511 1341 571 1333 q 411 1349 451 1349 q 190 1267 288 1349 q 96 1076 96 1185 q 128 974 96 1014 q 208 933 160 933 q 280 960 251 933 q 308 1029 308 988 q 285 1085 308 1063 q 231 1108 263 1108 q 189 1092 215 1108 q 168 1083 178 1083 q 151 1104 151 1083 q 198 1176 151 1147 q 313 1204 244 1204 q 449 1178 357 1204 q 654 1143 571 1143 q 846 1172 722 1143 q 628 979 690 1075 q 561 742 565 883 q 411 796 488 796 q 226 708 314 796 l 243 679 q 343 708 311 708 q 477 647 422 708 q 549 481 532 586 q 399 528 464 528 q 226 461 303 528 l 243 435 q 321 446 290 446 q 447 410 383 446 q 557 311 510 374 q 628 114 628 215 q 585 6 628 50 q 481 -40 540 -40 q 383 -24 451 -40 q 269 -6 311 -6 q 35 -215 90 -6 m 833 331 q 765 26 833 132 q 549 -111 696 -79 q 683 26 650 -49 q 718 265 718 100 q 718 351 718 313 q 717 422 718 390 l 714 547 l 714 594 q 793 1010 714 861 q 1063 1250 872 1160 q 871 981 911 1100 q 831 579 831 860 l 831 513 l 833 396 l 833 331 z "},"K":{"ha":1483,"x_min":96,"x_max":1519,"o":"m 1321 -17 l 1519 176 l 1493 208 l 1476 193 q 1422 158 1440 158 q 1349 239 1396 158 q 1256 390 1300 326 q 1176 499 1213 454 q 1014 644 1103 588 l 1363 883 l 1161 1135 l 822 865 q 868 1108 832 1004 q 978 1321 904 1214 l 944 1349 q 868 1231 900 1294 q 816 1091 836 1168 q 786 922 796 1014 q 776 718 776 831 l 776 688 l 778 601 l 778 571 q 725 344 778 418 q 513 193 671 269 l 322 103 l 521 269 q 661 419 632 364 q 692 594 692 475 l 692 664 q 690 719 690 699 q 689 750 689 740 q 697 917 689 840 q 719 1057 704 993 q 763 1191 735 1121 q 831 1338 790 1261 l 813 1353 q 738 1308 767 1318 q 653 1299 708 1299 q 582 1308 619 1299 q 526 1321 563 1310 q 388 1343 458 1343 q 285 1323 333 1343 q 200 1266 238 1303 q 135 1176 163 1229 q 96 1060 108 1124 l 138 1050 q 325 1188 185 1188 q 393 1182 361 1188 q 450 1174 428 1176 q 483 1172 472 1172 q 715 1246 556 1172 q 605 1135 649 1183 q 539 1049 561 1086 q 496 871 496 976 q 496 850 496 860 q 497 832 496 842 q 367 883 419 883 q 204 757 254 883 l 236 749 q 322 786 279 786 q 453 724 400 786 q 506 568 506 663 l 506 524 q 383 579 440 579 q 236 461 275 579 l 265 449 q 333 481 297 481 q 373 472 354 481 q 406 447 392 463 q 428 413 419 432 q 436 372 436 393 q 142 25 436 244 l 174 -17 q 549 75 369 75 q 921 -17 735 75 l 1139 226 l 1151 207 q 1240 71 1197 126 q 1321 -17 1282 15 m 822 524 q 908 490 868 511 q 983 438 947 469 q 1051 364 1018 407 q 1118 265 1085 321 l 1006 142 q 923 179 963 164 q 847 201 883 194 q 654 218 776 218 q 779 346 743 281 q 822 524 817 413 m 1185 813 l 822 565 l 822 807 l 1046 985 l 1185 813 z "},"L":{"ha":1257,"x_min":96,"x_max":1301,"o":"m 1082 -19 l 1301 185 l 1268 221 l 1181 139 q 831 265 1025 265 q 588 221 733 265 l 621 250 q 854 496 793 396 q 914 742 914 594 q 893 997 914 797 q 885 1094 885 1081 q 933 1231 885 1186 q 1094 1288 982 1275 l 1074 1333 l 1051 1333 q 798 1247 889 1333 q 707 1006 707 1161 q 708 969 707 986 q 710 933 708 951 l 719 829 q 730 719 726 758 q 733 669 733 681 q 461 189 733 374 q 590 415 551 314 q 628 632 628 513 q 624 747 628 686 q 613 874 619 807 q 600 1017 600 992 q 635 1169 600 1110 q 768 1304 672 1232 l 750 1333 q 575 1278 640 1278 q 456 1307 536 1278 q 313 1339 357 1339 q 161 1275 225 1339 q 96 1128 96 1213 q 113 1049 96 1099 l 147 1064 q 143 1101 143 1099 q 167 1169 143 1143 q 233 1194 192 1194 q 318 1176 268 1194 q 422 1154 381 1154 q 588 1182 485 1154 q 463 1022 496 1094 q 429 833 429 949 q 429 819 429 826 q 431 804 429 813 q 435 768 435 781 q 367 778 397 778 q 201 688 276 778 l 226 667 q 313 696 264 696 q 456 518 453 696 q 360 551 403 551 q 251 490 306 551 l 269 469 q 322 481 299 481 q 369 470 347 481 q 408 441 392 460 q 435 398 425 422 q 444 346 444 374 q 178 18 444 185 l 201 -19 q 679 124 461 124 q 1082 -19 893 124 z "},"M":{"ha":1846,"x_min":96,"x_max":1817,"o":"m 1599 -24 l 1817 149 l 1783 185 l 1726 139 q 1676 183 1685 161 q 1668 289 1668 204 l 1668 925 q 1683 1111 1668 1057 q 1763 1232 1700 1163 l 1726 1258 q 1676 1211 1696 1231 q 1644 1181 1656 1192 l 1443 1342 l 1110 1101 q 1078 1244 1103 1203 q 969 1336 1050 1290 l 943 1321 q 755 1215 825 1254 q 663 1161 685 1175 q 588 1112 622 1138 q 524 1060 554 1086 q 408 897 444 989 q 372 657 374 806 q 285 640 322 651 q 220 609 249 628 q 170 563 192 590 q 132 499 149 536 l 165 475 q 268 533 213 533 q 401 450 343 533 q 461 256 461 368 q 418 112 461 160 q 279 53 375 64 q 137 -5 178 42 q 96 -154 96 -51 l 96 -179 l 136 -179 q 236 -94 150 -94 q 289 -100 265 -94 q 393 -104 376 -104 q 674 228 674 -104 l 674 603 l 921 603 l 921 333 q 894 218 921 244 q 873 201 882 207 q 858 190 864 194 l 858 167 q 968 76 917 124 q 1064 -24 1019 29 l 1382 256 l 1353 288 l 1286 228 l 1286 600 l 1394 742 l 1286 742 l 1286 1181 l 1331 1213 l 1465 1108 l 1465 269 q 1488 86 1465 136 q 1599 -24 1510 36 m 1115 603 l 1246 603 l 1246 200 q 1190 174 1219 174 q 1129 214 1144 174 q 1115 378 1115 254 l 1115 603 m 1246 742 l 1115 742 l 1115 1056 l 1246 1150 l 1246 742 m 921 972 l 921 742 l 757 742 l 674 631 l 674 882 q 700 1088 674 1033 q 832 1207 728 1144 q 907 1131 893 1167 q 921 972 921 1097 m 474 50 q 461 51 475 50 q 419 53 447 51 q 532 147 504 86 q 558 369 558 206 l 558 750 q 575 989 558 932 q 663 1101 592 1044 q 632 881 632 1032 l 632 297 q 600 99 632 147 q 474 50 568 50 z "},"N":{"ha":1822,"x_min":96,"x_max":1825,"o":"m 1661 -19 l 1825 265 l 1779 281 l 1714 174 q 1657 178 1683 176 q 1607 181 1631 181 q 1374 147 1474 181 q 1394 176 1388 169 l 1531 365 q 1726 844 1726 632 q 1599 1157 1726 1025 q 1246 1342 1472 1289 l 653 1050 l 653 863 q 489 911 549 911 q 318 824 386 911 l 339 801 q 446 832 394 832 q 653 603 629 832 q 488 672 567 672 q 318 588 394 672 l 339 561 q 446 588 390 588 q 672 394 625 588 q 542 433 600 433 q 386 340 454 433 l 411 315 q 522 356 472 356 q 649 299 592 356 q 706 168 706 242 q 582 35 706 35 q 549 40 571 35 l 489 51 q 351 69 399 69 q 96 -89 200 69 l 121 -112 q 281 -65 203 -65 q 399 -87 326 -65 q 600 -128 526 -128 q 876 -15 781 -128 q 972 311 972 97 l 972 499 q 1239 575 1090 575 q 1486 490 1350 575 q 1481 476 1483 482 q 1476 468 1478 471 q 1446 403 1464 440 q 1404 322 1428 367 q 1367 256 1385 288 q 1331 196 1349 225 q 1172 -121 1206 -24 l 1217 -136 q 1476 24 1297 24 q 1661 -19 1565 24 m 1225 619 q 972 551 1114 619 l 972 796 q 1232 725 1111 725 q 1540 828 1385 725 q 1545 797 1543 813 q 1547 767 1547 782 q 1500 532 1547 660 q 1225 619 1372 619 m 1235 771 q 972 853 1103 771 l 972 1135 q 1135 1156 1081 1156 q 1378 1079 1271 1156 q 1531 875 1488 1004 q 1448 826 1486 847 q 1378 794 1410 806 q 1235 771 1311 771 m 842 1082 q 897 1106 874 1097 q 933 1121 919 1115 l 933 403 q 890 94 933 172 q 715 3 846 15 q 817 117 792 50 q 842 339 842 183 l 842 1082 z "},"O":{"ha":1493,"x_min":96,"x_max":1444,"o":"m 824 1342 l 183 956 q 96 565 96 749 q 258 150 96 318 q 661 -18 421 -18 q 964 75 804 -18 q 1268 332 1129 169 q 1444 746 1444 535 q 1274 1136 1444 971 q 824 1342 1104 1300 m 247 675 q 438 1058 247 918 l 438 542 q 435 469 438 499 q 431 422 433 439 q 372 322 418 365 q 247 675 247 497 m 622 1172 q 675 1170 650 1172 q 724 1165 700 1168 l 724 129 q 403 289 533 153 q 585 465 549 403 q 622 663 622 529 l 622 1172 m 990 801 q 767 893 876 801 l 767 1163 q 911 1128 843 1151 q 1037 1069 979 1104 q 1139 990 1094 1035 q 1213 893 1183 944 q 990 801 1110 801 m 982 636 q 767 550 865 636 l 767 849 q 997 761 876 761 q 1229 849 1110 761 q 1257 692 1257 763 q 1232 524 1257 628 q 982 636 1108 636 m 783 129 l 767 129 l 767 490 q 985 594 856 594 q 1217 478 1121 594 q 1042 226 1164 324 q 783 129 919 129 z "},"P":{"ha":1513,"x_min":96,"x_max":1453,"o":"m 515 97 l 515 -260 l 844 -260 l 844 82 q 915 70 875 79 q 1003 46 954 61 q 1171 -18 1103 14 l 1453 233 l 1453 842 q 1378 1101 1453 1003 q 1082 1336 1303 1201 l 844 1174 l 844 1317 l 801 1317 l 801 1146 l 707 1081 q 688 1186 707 1139 q 637 1267 669 1233 q 558 1318 604 1300 q 456 1336 511 1336 q 193 1206 307 1336 l 219 1174 q 351 1222 300 1222 q 515 997 515 1222 l 515 946 l 183 717 l 193 688 q 426 554 336 660 q 515 303 515 449 l 515 261 q 96 1 293 226 l 115 -22 q 515 97 290 86 m 801 -217 l 707 -217 l 707 1031 l 801 1099 l 801 -217 m 1257 157 q 844 274 1058 253 l 844 454 q 1056 526 967 526 q 1257 454 1143 526 l 1257 157 m 1060 568 q 844 500 950 568 l 844 771 q 1040 707 950 707 q 1257 778 1132 707 l 1257 508 q 1060 568 1143 568 m 1040 750 q 844 824 943 750 l 844 1124 l 944 1193 q 1087 1112 1028 1151 q 1184 1032 1146 1072 q 1240 948 1222 992 q 1257 854 1257 904 l 1257 831 q 1040 750 1156 750 m 515 638 q 335 771 442 715 l 515 893 l 515 638 z "},"Q":{"ha":1561,"x_min":96,"x_max":1522,"o":"m 840 1342 l 204 963 q 96 549 96 743 q 258 144 96 307 q 663 -18 422 -18 q 846 13 760 -18 q 1058 125 933 43 l 1338 -78 l 1522 97 l 1486 132 l 1431 81 l 1214 243 l 1233 265 q 1435 532 1382 438 q 1494 757 1494 638 q 1314 1146 1494 986 q 840 1342 1135 1306 m 261 663 q 454 1046 261 907 l 454 513 q 446 408 454 439 q 394 315 436 365 q 261 663 261 482 m 664 1154 q 708 1153 686 1154 q 750 1151 729 1153 l 750 146 q 576 188 642 160 q 428 285 513 217 q 544 391 499 343 q 613 478 589 439 q 646 672 646 532 l 646 1154 l 664 1154 m 818 146 l 796 146 l 796 496 q 1017 600 881 600 q 1258 488 1160 600 q 1069 243 1196 340 q 818 146 946 146 m 1019 644 q 796 558 901 644 l 796 842 q 1028 767 922 767 q 1267 861 1143 767 q 1300 693 1300 783 q 1274 533 1300 608 q 1019 644 1151 644 m 1025 810 q 796 894 915 810 l 796 1146 q 1071 1064 940 1133 q 1249 901 1201 994 q 1025 810 1146 810 z "},"R":{"ha":1503,"x_min":96,"x_max":1540,"o":"m 882 -18 l 1103 193 l 1074 225 l 985 139 q 832 217 936 175 l 832 589 l 868 614 q 1063 501 990 586 q 1185 243 1138 414 q 1243 78 1217 124 q 1338 -18 1271 32 l 1540 169 l 1513 204 l 1440 139 q 1347 303 1386 182 l 1317 403 q 1047 735 1243 635 l 1338 932 l 1039 1339 l 688 1100 q 613 1279 681 1217 q 428 1342 546 1342 q 165 1214 272 1342 l 185 1193 q 318 1233 253 1233 q 456 1179 414 1233 q 499 999 499 1125 l 499 969 l 156 731 l 156 706 q 416 535 326 646 q 506 274 506 425 l 506 261 q 96 18 269 231 l 111 0 q 492 97 285 97 q 882 -18 710 97 m 300 772 l 499 914 l 499 626 q 300 772 422 711 m 788 229 q 726 244 751 238 q 688 253 701 250 l 688 1046 l 788 1115 l 788 229 m 1151 861 l 832 640 l 832 1144 l 911 1200 l 1151 861 z "},"S":{"ha":1531,"x_min":96,"x_max":1482,"o":"m 1028 1208 l 643 1346 q 297 892 297 1085 l 297 883 q 299 872 299 879 q 133 664 133 807 q 222 501 133 558 q 479 444 311 444 l 521 444 q 563 446 549 446 q 585 447 578 446 l 517 325 q 440 335 472 332 q 385 339 407 339 q 175 288 256 339 q 96 154 96 235 q 160 28 96 75 q 332 -18 224 -18 q 731 103 481 -18 q 757 90 747 93 l 839 60 l 921 24 q 946 11 935 17 q 1482 574 1482 276 q 1352 825 1482 736 q 985 914 1222 914 q 945 913 965 914 q 906 911 925 913 l 1124 1290 l 1089 1313 l 1028 1208 m 604 1178 q 943 1063 732 1178 l 853 907 q 835 906 842 906 q 824 906 828 906 q 692 895 744 899 q 617 892 640 892 q 419 1021 419 892 q 433 1083 419 1054 q 472 1133 447 1113 q 531 1166 497 1154 q 604 1178 564 1178 m 718 736 l 758 740 l 685 617 q 567 608 613 611 q 499 606 521 606 q 251 740 251 606 q 304 833 251 796 q 375 747 328 769 q 539 725 424 725 q 603 728 558 725 q 718 736 647 731 m 769 624 q 760 623 768 624 q 736 621 751 622 l 810 746 q 931 754 888 751 q 985 757 974 757 q 1135 738 1068 757 q 1249 685 1201 719 q 1321 601 1296 650 q 1346 492 1346 551 q 1108 149 1346 311 q 964 204 1038 181 q 979 213 974 210 q 988 218 985 217 q 1109 292 1060 258 q 1186 354 1158 326 q 1240 475 1240 410 q 1172 599 1240 554 q 986 644 1104 644 q 906 640 932 644 l 769 624 m 589 313 l 563 318 l 636 447 q 669 451 663 451 l 874 475 q 917 479 894 478 q 964 481 940 481 q 1046 460 1014 481 q 1078 407 1078 439 q 914 238 1078 338 l 897 228 q 739 274 807 257 q 685 289 731 279 l 589 313 m 318 189 q 672 121 485 189 q 321 21 469 21 q 183 104 183 21 q 318 189 183 189 z "},"T":{"ha":1414,"x_min":96,"x_max":1425,"o":"m 1029 165 l 1029 1090 q 1081 1085 1064 1088 q 1100 1083 1099 1083 q 1329 1157 1243 1083 q 1425 1357 1415 1231 l 1396 1368 q 1196 1258 1329 1258 q 946 1288 1135 1258 l 811 1310 q 583 1331 675 1331 q 268 1225 394 1331 q 96 924 142 1119 l 125 911 q 490 1163 243 1163 q 535 1160 514 1163 q 579 1156 557 1158 q 211 551 211 914 q 388 146 211 310 q 821 -18 564 -18 q 1206 115 1032 -18 q 1425 456 1379 251 l 1396 464 q 1029 165 1264 225 m 854 1119 q 936 1103 903 1110 q 986 1094 969 1097 l 986 157 q 892 149 911 149 q 613 236 747 149 q 632 253 628 247 q 821 435 789 381 q 854 624 854 490 l 854 1119 m 388 664 q 461 961 388 825 q 656 1156 535 1097 l 656 557 q 643 354 656 397 q 571 268 631 311 q 388 664 388 431 z "},"U":{"ha":1551,"x_min":96,"x_max":1540,"o":"m 1343 -42 l 1540 122 l 1517 158 q 1465 142 1485 142 q 1403 265 1403 142 l 1403 910 q 1417 1108 1403 1065 q 1504 1240 1431 1154 q 1513 1251 1507 1246 q 1525 1264 1518 1257 l 1488 1292 l 1396 1194 l 1208 1333 l 990 1104 l 1019 1074 l 1124 1178 l 1208 1110 l 1208 832 q 1068 793 1149 793 q 900 854 978 793 l 900 1363 l 872 1363 q 685 1292 818 1292 q 517 1329 622 1292 q 339 1374 392 1374 q 159 1285 222 1374 q 96 1038 96 1197 q 96 1014 96 1026 q 97 986 96 1001 l 139 986 q 138 999 138 988 q 303 1206 138 1206 q 346 1204 326 1206 q 382 1200 365 1203 q 429 1194 410 1197 q 458 1190 449 1192 q 481 1188 468 1189 q 510 1188 494 1188 q 521 1189 500 1188 q 592 1193 542 1190 q 613 1194 606 1194 q 624 1194 621 1194 l 589 1172 q 395 1028 476 1101 q 263 879 314 956 q 165 540 165 732 q 311 138 165 293 q 689 -18 457 -18 q 938 31 821 -18 q 1206 210 1050 81 q 1236 56 1208 107 q 1343 -42 1267 1 m 1208 282 q 900 136 1051 154 l 900 533 q 1046 579 971 579 q 1208 531 1118 579 l 1208 282 m 1047 622 q 900 588 978 622 l 900 800 q 1067 750 981 750 q 1208 783 1142 750 l 1208 579 q 1047 622 1124 622 m 776 969 q 779 1085 776 1040 q 788 1151 782 1129 q 856 1256 800 1196 l 856 129 q 829 128 843 128 q 803 128 817 128 q 532 210 647 128 q 660 302 607 254 q 746 399 714 350 q 776 551 776 442 l 776 969 m 585 510 q 580 416 585 456 q 564 346 575 376 q 535 292 553 315 q 490 250 517 269 q 353 622 353 396 q 767 1224 353 1014 q 742 1194 747 1203 l 669 1103 q 601 992 618 1039 q 585 861 585 943 l 585 510 z "},"V":{"ha":1371,"x_min":96,"x_max":1311,"o":"m 1165 1342 l 621 1060 q 494 1279 576 1197 q 313 1363 411 1363 q 169 1285 225 1363 q 96 1060 113 1207 l 129 1051 l 133 1071 q 242 1194 167 1194 q 414 1032 343 1194 q 486 635 486 874 l 486 601 q 340 678 422 678 q 189 565 239 678 l 210 547 q 294 579 253 579 q 413 517 360 579 q 465 374 465 453 q 332 10 465 235 l 364 -24 q 558 47 464 47 q 767 -24 654 47 l 786 -7 q 1186 449 1049 211 q 1311 874 1311 667 q 1165 1342 1311 1085 m 667 807 q 650 938 658 886 q 632 1017 642 990 l 1006 1208 q 1124 829 1111 1044 q 1001 785 1044 794 q 874 771 951 771 q 667 807 788 771 m 643 521 q 669 760 669 632 q 874 728 778 728 q 1121 781 1000 728 q 1056 479 1117 629 q 796 543 922 543 q 643 521 718 543 m 536 260 q 581 347 558 296 q 626 468 603 399 q 800 499 718 499 q 1036 435 925 499 q 874 163 954 265 q 724 189 794 189 q 582 161 650 189 q 414 61 517 135 q 433 89 429 81 l 536 260 z "},"W":{"ha":1819,"x_min":96,"x_max":1781,"o":"m 1015 1353 l 589 1049 q 476 1268 551 1190 q 303 1346 400 1346 q 96 1072 124 1346 l 139 1067 q 229 1203 151 1203 q 378 1056 322 1203 q 444 635 433 908 q 308 704 375 704 q 163 596 214 704 l 186 571 q 260 600 225 600 q 369 540 324 600 q 417 399 417 481 q 279 25 417 239 q 268 7 276 17 l 289 -24 q 569 75 450 75 q 670 53 626 75 q 768 -24 714 32 l 781 -17 q 1032 72 924 72 q 1132 51 1090 72 q 1229 -24 1172 33 q 1647 426 1513 217 q 1781 838 1781 635 q 1599 1349 1781 1075 l 1174 1056 q 1015 1353 1110 1222 m 628 818 q 618 918 625 874 q 601 999 611 963 l 871 1196 q 958 1031 917 1136 q 1017 832 1001 926 q 810 767 915 767 q 628 818 722 767 m 628 746 l 628 769 q 811 718 704 718 q 1021 781 910 718 q 1023 756 1022 769 q 1024 728 1024 743 q 972 460 1024 618 q 744 533 844 533 q 603 507 686 533 l 588 500 q 628 746 628 633 m 553 414 l 565 439 q 751 490 664 490 q 954 418 851 490 q 903 301 931 356 q 844 199 875 247 q 783 207 810 204 q 733 210 756 210 q 583 182 667 210 q 401 103 525 163 l 374 89 q 388 111 386 106 q 479 260 443 189 q 506 313 488 275 q 553 414 525 351 m 1219 818 q 1186 1015 1214 936 l 1447 1193 q 1575 818 1553 1042 l 1567 814 q 1390 776 1468 776 q 1219 818 1307 776 m 1154 513 q 1219 769 1213 625 q 1379 735 1311 735 q 1557 767 1449 735 q 1563 767 1558 767 q 1575 769 1567 768 l 1575 746 q 1558 621 1575 706 q 1518 468 1540 521 q 1286 533 1390 533 q 1176 517 1247 533 q 1154 513 1168 517 m 864 121 q 1022 292 978 235 q 1070 359 1044 319 q 1125 451 1096 399 q 1290 492 1208 492 q 1500 426 1394 492 q 1364 201 1428 276 q 1232 226 1282 226 q 1082 201 1171 226 q 935 147 993 179 l 868 111 q 854 103 861 107 q 840 96 847 99 q 864 121 860 115 z "},"X":{"ha":1224,"x_min":96,"x_max":1222,"o":"m 999 -24 l 1222 175 l 1185 217 l 1143 176 q 1078 142 1108 142 q 1015 208 1046 142 l 838 621 l 1068 621 l 1139 769 l 757 769 l 921 1143 q 1128 1057 1015 1094 l 1146 1049 l 1222 1207 q 960 1353 1068 1278 l 739 856 l 635 1103 q 518 1294 576 1242 q 369 1349 461 1349 q 96 1151 197 1349 l 124 1128 q 282 1204 208 1204 q 382 1168 349 1204 q 421 1111 400 1150 q 468 1011 442 1072 l 568 769 l 339 769 l 271 621 l 635 621 l 446 196 l 428 201 q 332 243 350 239 q 272 268 304 256 q 201 292 239 281 l 124 121 q 401 -24 267 78 l 656 543 l 793 217 q 881 50 844 89 q 999 -24 917 8 z "},"Y":{"ha":1421,"x_min":96,"x_max":1381,"o":"m 139 1267 l 158 1233 q 233 1256 201 1256 q 372 1183 331 1256 q 414 944 414 1111 l 414 874 q 250 935 317 935 q 143 906 199 935 l 149 874 q 163 875 156 875 q 178 875 171 875 q 347 801 281 875 q 414 613 414 728 l 414 574 q 217 647 315 647 q 149 638 183 647 l 149 613 q 259 583 210 608 q 342 517 308 558 q 395 417 376 475 q 414 292 414 360 l 414 257 q 186 185 275 257 q 96 1 96 111 q 182 -190 96 -112 q 393 -269 267 -269 q 754 -142 519 -269 q 906 -83 864 -83 q 949 -111 949 -83 q 942 -131 949 -112 q 914 -200 914 -169 q 938 -263 914 -237 q 997 -289 961 -289 q 1086 -193 1086 -289 q 1014 -68 1086 -119 q 839 -18 943 -18 q 678 -44 765 -18 q 622 -65 660 -51 q 522 -101 583 -79 q 325 -150 389 -150 q 255 -137 288 -150 q 199 -101 222 -124 q 161 -49 175 -79 q 147 18 147 -18 q 231 163 147 111 q 465 215 314 215 q 613 211 514 215 q 760 207 710 207 q 1228 353 1076 207 q 1381 806 1381 499 q 1272 1147 1381 1014 q 997 1282 1167 1282 q 624 1142 863 1282 q 600 1125 608 1128 q 340 1342 558 1342 q 139 1267 228 1342 m 688 257 l 600 257 l 600 1064 q 688 1118 660 1103 l 688 257 m 758 257 l 731 257 l 731 536 q 938 617 828 617 q 1163 524 1056 617 q 758 257 1075 257 m 936 663 q 731 589 832 663 l 731 858 q 946 779 828 779 q 1058 799 1008 779 q 1111 827 1082 810 q 1172 871 1140 844 q 1186 728 1186 807 q 1172 574 1186 638 q 936 663 1058 663 m 942 821 q 888 826 913 821 q 838 842 863 831 q 787 871 813 853 q 731 917 761 889 l 731 1142 q 872 1178 814 1178 q 1051 1106 974 1178 q 1160 917 1133 1032 q 942 821 1065 821 z "},"Z":{"ha":1118,"x_min":96,"x_max":1118,"o":"m 918 -24 l 1118 226 l 1083 257 l 989 139 q 717 211 843 211 q 268 103 528 211 l 297 129 q 495 332 404 225 q 663 561 586 439 l 968 561 l 997 629 l 704 629 q 747 708 732 682 q 761 733 761 733 l 1042 733 l 1074 801 l 793 801 l 819 850 q 972 1125 904 1010 q 1093 1313 1040 1240 l 1068 1342 q 693 1256 900 1256 q 365 1338 554 1256 l 146 1081 l 181 1050 l 292 1178 q 549 1124 410 1124 q 928 1219 692 1124 q 947 1228 939 1225 q 963 1235 956 1232 l 932 1203 q 793 1056 844 1111 q 725 981 742 1000 q 656 899 692 944 q 582 801 621 854 l 299 801 l 268 733 l 540 733 l 483 629 l 221 629 l 193 561 l 447 561 q 400 477 428 529 q 335 351 372 425 q 96 10 219 131 l 124 -24 q 536 71 344 71 q 918 -24 733 71 z "},"[":{"ha":378,"x_min":96,"x_max":378,"o":"m 378 -272 l 378 -225 l 238 -225 l 238 1299 l 378 1299 l 378 1349 l 96 1349 l 96 -272 l 378 -272 z "},"\\":{"ha":539,"x_min":85,"x_max":551,"o":"m 356 194 l 356 1176 l 521 1135 l 551 1288 l 361 1336 q 244 1241 294 1279 q 158 1181 193 1203 l 158 935 l 85 935 l 85 831 l 158 831 l 158 315 q 156 255 158 279 q 151 217 154 231 q 96 142 142 168 l 96 121 q 333 -24 222 79 l 540 142 l 515 167 l 454 121 q 404 158 429 140 q 356 194 379 176 z "},"]":{"ha":378,"x_min":96,"x_max":378,"o":"m 378 -272 l 378 1349 l 96 1349 l 96 1299 l 239 1299 l 239 -225 l 96 -225 l 96 -272 l 378 -272 z "},"^":{"ha":744,"x_min":72,"x_max":683,"o":"m 356 1410 l 72 1115 l 115 1093 l 269 1249 l 558 1093 l 683 1222 l 356 1410 z "},"_":{"ha":894,"x_min":0,"x_max":894,"o":"m 894 -189 l 894 -106 l 0 -106 l 0 -189 l 894 -189 z "},"`":{"ha":475,"x_min":96,"x_max":475,"o":"m 165 1154 l 475 1092 l 268 1328 l 96 1328 l 165 1154 z "},"a":{"ha":879,"x_min":121,"x_max":858,"o":"m 650 -24 l 858 139 l 839 165 q 783 139 803 139 q 732 194 742 139 q 728 282 728 215 l 728 624 q 740 792 728 743 q 800 914 753 842 l 772 932 q 683 888 731 888 q 418 975 586 888 q 186 892 311 892 q 160 892 172 892 q 136 893 147 892 l 306 592 l 282 565 q 121 233 121 379 q 272 -24 121 90 l 533 186 q 547 121 539 150 q 565 72 554 92 q 650 -24 589 32 m 325 561 l 533 474 l 533 233 l 407 132 q 285 351 285 236 q 325 561 285 457 m 199 858 l 533 746 l 533 513 l 346 593 l 199 858 z "},"b":{"ha":842,"x_min":72,"x_max":765,"o":"m 106 164 l 106 143 q 469 -24 332 104 q 765 143 583 78 l 765 683 q 743 851 765 806 q 635 975 724 897 l 353 740 l 353 1078 q 374 1232 353 1182 q 460 1321 397 1282 l 454 1342 q 387 1326 417 1335 q 331 1305 357 1318 q 280 1272 304 1292 q 229 1225 256 1253 q 153 1278 189 1257 q 85 1310 117 1300 l 72 1285 q 143 1199 128 1239 q 158 1092 158 1164 l 158 350 q 150 215 158 246 q 106 164 142 185 m 353 225 l 353 693 l 510 828 q 563 751 550 792 q 571 656 571 719 l 571 132 l 353 225 z "},"c":{"ha":628,"x_min":82,"x_max":628,"o":"m 401 -24 l 628 157 l 606 183 l 522 115 l 353 193 l 353 793 l 517 700 l 614 846 l 385 975 q 82 779 238 828 l 82 757 l 101 757 q 149 738 139 757 q 158 657 158 719 l 158 257 q 151 174 158 201 q 104 107 140 138 l 104 85 q 401 -24 267 68 z "},"d":{"ha":861,"x_min":103,"x_max":806,"o":"m 103 1317 l 103 1090 l 347 903 q 158 822 286 854 l 158 383 q 149 214 158 251 q 103 142 140 178 l 103 121 q 199 108 154 118 q 285 82 244 97 q 373 40 325 67 q 474 -24 421 13 q 761 133 588 64 l 761 749 q 767 840 761 818 q 806 921 775 890 l 796 954 q 699 875 733 933 l 103 1317 m 569 138 l 361 238 l 361 819 q 392 842 381 833 q 411 856 404 850 l 569 739 l 569 138 z "},"e":{"ha":733,"x_min":85,"x_max":708,"o":"m 396 -24 l 683 168 l 664 196 l 522 101 q 438 146 481 125 q 351 186 396 167 l 351 367 l 708 665 l 469 975 q 290 876 381 922 q 107 789 200 829 q 95 784 100 786 q 85 779 90 782 l 94 758 l 101 758 q 149 740 139 758 q 158 647 158 722 l 158 297 q 151 196 158 228 q 94 121 139 146 l 94 101 q 396 -24 233 79 m 551 600 l 351 433 l 351 854 l 551 600 z "},"f":{"ha":539,"x_min":85,"x_max":551,"o":"m 333 -24 l 540 142 l 515 167 l 454 121 q 404 158 429 140 q 356 194 379 176 l 356 831 l 486 831 l 486 935 l 356 935 l 356 1176 l 521 1135 l 551 1288 l 361 1336 q 244 1241 294 1279 q 158 1181 193 1203 l 158 935 l 85 935 l 85 831 l 158 831 l 158 315 q 156 255 158 279 q 151 217 154 231 q 96 142 142 168 l 96 121 q 333 -24 222 79 z "},"g":{"ha":874,"x_min":103,"x_max":874,"o":"m 329 28 l 103 -237 l 121 -260 q 385 -219 258 -219 q 611 -268 494 -219 l 656 -244 q 825 -143 785 -176 q 865 -60 865 -110 q 839 21 865 -22 q 824 44 836 26 q 792 94 813 63 q 774 118 781 108 q 765 133 768 128 q 731 203 740 171 q 724 303 724 238 l 724 758 q 801 735 764 746 q 874 715 839 725 l 874 924 l 719 839 l 446 975 q 121 854 289 872 l 121 181 l 329 28 m 438 -75 q 364 -80 406 -75 q 272 -94 322 -85 l 531 210 q 599 29 538 122 q 754 -126 663 -62 l 719 -146 q 438 -75 571 -75 m 433 151 l 311 242 l 311 840 l 531 758 l 531 269 l 433 151 z "},"h":{"ha":885,"x_min":75,"x_max":771,"o":"m 81 111 l 246 -24 l 419 104 l 357 176 l 357 706 l 507 824 q 561 757 549 788 q 569 672 569 732 l 569 199 q 515 -62 569 10 q 253 -237 461 -136 l 229 -250 l 242 -283 q 663 -54 556 -171 q 771 288 771 60 l 771 679 q 746 854 771 801 q 632 975 724 907 l 357 750 l 357 1103 q 381 1232 357 1188 q 475 1318 404 1276 l 464 1342 q 233 1225 310 1317 q 90 1322 154 1299 l 75 1296 q 142 1214 126 1251 q 158 1100 158 1176 l 158 176 l 81 111 z "},"i":{"ha":489,"x_min":90,"x_max":489,"o":"m 285 -24 l 489 136 l 465 168 l 407 121 l 351 168 l 351 778 l 418 839 l 253 975 l 90 844 l 158 786 l 158 303 q 154 215 158 233 q 96 154 142 168 l 96 136 q 285 -24 176 86 m 321 1369 l 272 1143 l 321 1139 l 483 1363 l 321 1369 z "},"j":{"ha":489,"x_min":53,"x_max":489,"o":"m 263 975 l 53 818 l 75 788 l 139 833 q 183 792 165 810 q 211 765 200 775 q 158 468 158 619 q 200 146 158 347 q 215 61 210 97 q 219 0 219 25 q 75 -254 219 -154 l 86 -283 q 319 -107 251 -199 q 388 115 388 -18 q 383 180 388 142 q 372 268 379 218 q 350 501 350 396 q 446 807 350 674 q 263 975 351 868 m 318 1369 l 279 1146 l 331 1142 l 489 1369 l 318 1369 z "},"k":{"ha":861,"x_min":61,"x_max":875,"o":"m 667 -24 l 875 142 l 856 169 l 806 129 q 758 250 768 168 l 750 308 q 708 446 739 393 q 601 571 681 496 q 585 585 588 579 l 796 778 l 611 975 l 360 731 l 360 1093 q 374 1221 360 1189 q 465 1313 392 1264 l 460 1342 q 378 1319 414 1331 q 319 1294 343 1307 q 225 1219 274 1271 q 75 1310 171 1282 l 61 1286 q 139 1201 121 1246 q 158 1064 158 1154 l 158 288 q 154 203 158 224 q 96 147 140 164 l 96 121 q 332 -24 244 76 l 582 181 l 585 156 q 611 54 593 88 q 667 -24 624 28 m 457 128 l 360 196 l 360 383 l 444 457 q 532 367 507 411 q 575 226 558 325 l 457 128 m 636 682 l 360 433 l 360 682 l 507 819 l 636 682 z "},"l":{"ha":518,"x_min":63,"x_max":518,"o":"m 332 -24 l 518 128 l 492 158 l 451 128 l 356 194 l 356 1068 q 374 1218 356 1176 q 457 1310 392 1264 l 446 1342 q 228 1215 308 1307 q 154 1269 193 1246 q 72 1310 115 1292 l 63 1281 q 140 1204 121 1249 q 158 1060 158 1164 l 158 289 q 150 204 158 226 q 93 146 138 169 l 93 115 q 332 -24 232 79 z "},"m":{"ha":1307,"x_min":38,"x_max":1288,"o":"m 242 975 l 38 813 l 61 779 q 67 783 65 782 q 71 786 69 785 q 114 806 103 806 q 156 763 147 806 q 158 737 157 754 q 158 693 158 719 l 158 185 l 90 114 l 263 -24 l 419 107 l 351 178 l 351 707 l 488 822 l 501 807 q 554 740 544 767 q 565 661 565 714 l 565 178 l 501 107 l 669 -24 l 829 107 l 760 178 l 760 707 l 901 829 l 972 750 l 972 260 q 994 85 972 135 q 1100 -24 1018 33 l 1288 132 l 1265 164 q 1214 136 1229 136 q 1171 189 1179 136 q 1169 216 1169 196 q 1168 268 1168 236 l 1168 667 q 1186 779 1168 742 q 1258 871 1206 819 l 1233 897 l 1156 822 l 1017 975 l 754 750 q 743 814 751 785 q 719 869 735 843 q 677 922 703 896 q 617 975 651 947 l 351 750 l 351 786 q 331 886 351 853 q 299 926 321 904 q 242 975 276 947 z "},"n":{"ha":897,"x_min":44,"x_max":892,"o":"m 239 975 l 44 828 l 67 797 q 115 818 104 818 q 138 813 129 818 q 151 795 146 808 q 157 757 156 782 q 158 693 158 732 l 158 189 l 82 117 l 250 -24 l 419 113 l 353 185 l 353 726 l 489 839 l 565 760 l 565 265 q 581 97 565 140 q 664 -6 596 54 q 672 -13 667 -8 q 685 -24 678 -18 l 892 142 l 868 181 q 859 174 863 176 q 853 168 856 171 q 807 146 821 146 q 761 210 769 146 q 760 239 760 217 q 760 300 760 263 l 760 635 q 778 782 760 738 q 861 890 796 829 l 832 921 l 740 832 l 596 975 l 353 772 q 351 797 351 779 q 329 889 351 854 q 260 958 313 914 q 239 975 247 968 z "},"o":{"ha":803,"x_min":64,"x_max":708,"o":"m 708 129 l 708 831 q 547 888 624 853 q 399 975 469 924 q 121 813 279 865 l 121 365 q 117 246 121 268 q 64 147 106 179 l 64 124 q 425 -24 244 110 q 708 129 522 54 m 311 221 l 311 819 l 517 731 l 517 133 l 311 221 z "},"p":{"ha":868,"x_min":42,"x_max":769,"o":"m 42 196 l 42 129 q 158 115 101 126 l 158 -6 q 147 -128 158 -92 q 67 -225 131 -174 l 76 -250 q 233 -161 182 -211 q 444 -281 335 -249 l 461 -246 q 380 -173 403 -218 q 357 -42 357 -128 l 357 54 q 499 -24 424 28 q 769 164 592 76 l 769 647 q 738 829 769 774 q 578 975 707 882 l 357 767 q 329 881 353 838 q 238 975 307 922 l 47 822 l 67 797 q 106 813 94 813 q 158 692 158 813 l 158 215 q 98 208 126 213 q 42 196 69 203 m 574 142 q 471 185 525 168 q 357 211 417 201 l 357 704 l 471 814 q 557 742 542 771 q 574 632 574 714 l 574 142 z "},"q":{"ha":850,"x_min":121,"x_max":822,"o":"m 282 -24 l 532 181 l 532 3 q 511 -164 532 -121 q 413 -251 490 -207 l 418 -281 q 650 -165 579 -253 q 810 -251 739 -228 l 822 -225 q 736 -124 756 -181 q 726 7 726 -90 l 726 603 q 742 754 726 731 q 783 783 767 775 l 783 813 q 600 857 685 821 q 512 905 558 875 q 413 975 465 935 q 351 926 385 951 q 274 878 317 901 q 121 810 189 831 l 121 285 q 144 101 121 151 q 282 -24 169 56 m 321 806 l 532 700 l 532 228 l 404 125 q 333 197 346 169 q 321 313 321 226 l 321 806 z "},"r":{"ha":657,"x_min":29,"x_max":685,"o":"m 226 975 l 29 807 l 53 779 l 111 828 q 154 768 146 801 q 158 696 158 749 l 158 299 q 156 241 158 265 q 145 198 153 217 q 124 165 138 179 q 90 139 111 151 l 90 117 q 332 -24 210 96 l 571 168 l 543 199 l 451 128 l 357 199 l 357 754 l 435 822 l 550 678 l 685 801 l 543 978 l 365 818 q 226 975 321 922 z "},"s":{"ha":868,"x_min":53,"x_max":814,"o":"m 304 351 l 53 -1 l 79 -24 q 272 51 172 51 q 496 -24 376 51 q 768 128 615 83 l 768 513 l 565 631 l 733 861 q 814 1046 814 971 q 746 1124 814 1124 q 688 1068 688 1124 q 692 1042 686 1054 q 707 1019 699 1031 q 723 994 715 1007 q 731 967 731 982 q 632 903 731 903 q 378 975 517 903 q 327 914 354 940 q 272 868 300 888 q 121 801 215 831 l 121 451 l 304 351 m 454 471 l 569 407 l 569 142 q 375 200 461 200 q 243 175 315 200 l 454 471 m 411 500 l 314 557 l 314 821 q 524 758 407 758 q 558 759 540 758 q 596 761 576 760 l 411 500 z "},"t":{"ha":532,"x_min":75,"x_max":536,"o":"m 353 1229 l 75 861 l 75 828 l 158 828 l 158 329 q 147 201 158 235 q 96 139 136 169 l 96 114 q 329 -24 229 78 l 536 147 l 507 181 l 446 132 q 402 164 425 147 q 353 199 379 181 l 353 828 l 518 828 l 518 935 l 353 935 l 353 1229 z "},"u":{"ha":900,"x_min":53,"x_max":894,"o":"m 256 975 l 53 796 l 79 767 l 117 796 l 158 767 l 158 289 q 150 186 158 208 q 104 151 142 167 l 104 125 q 321 -24 204 81 l 578 211 l 578 190 q 597 75 578 117 q 626 35 607 56 q 675 -7 646 15 q 699 -24 682 -14 l 894 125 l 865 158 q 822 139 838 139 q 769 250 769 139 l 769 771 l 833 831 l 669 975 l 508 831 l 578 771 l 578 261 l 439 136 l 351 207 l 351 771 l 418 831 l 256 975 z "},"v":{"ha":881,"x_min":67,"x_max":761,"o":"m 610 975 l 356 760 q 329 858 351 815 q 298 908 318 881 q 247 967 278 935 q 193 1064 193 1022 q 289 1196 193 1122 l 269 1222 q 67 967 67 1111 q 81 890 67 922 q 121 822 89 871 q 153 756 149 779 q 158 654 158 735 l 158 313 q 149 196 158 224 q 101 151 138 168 l 101 129 q 283 92 201 128 q 460 -24 365 56 q 761 143 588 96 l 761 619 q 736 836 761 779 q 610 975 711 894 m 569 133 q 467 181 521 157 q 356 228 414 204 l 356 715 l 490 829 q 557 746 544 776 q 569 621 569 714 l 569 133 z "},"w":{"ha":1278,"x_min":47,"x_max":1165,"o":"m 600 975 l 350 757 q 243 960 346 865 q 181 1071 181 1015 q 256 1185 181 1126 q 271 1197 267 1196 l 251 1226 q 47 979 47 1111 q 111 828 47 908 q 122 808 117 817 q 133 792 128 799 q 158 657 158 754 l 158 294 q 146 181 158 207 q 128 163 138 168 q 82 139 126 163 l 82 121 q 433 -24 289 106 q 628 69 514 69 q 872 -24 736 69 q 1165 138 971 75 l 1165 647 q 1136 840 1165 779 q 1010 975 1110 899 l 750 757 q 600 975 733 903 m 561 125 l 350 211 l 350 708 l 483 828 q 551 744 539 786 q 561 640 561 719 l 561 125 m 972 138 l 757 225 l 757 710 l 892 828 q 961 742 946 778 q 972 632 972 706 l 972 138 z "},"x":{"ha":858,"x_min":44,"x_max":879,"o":"m 117 243 l 44 76 l 219 -24 l 411 378 q 420 358 417 365 q 426 347 424 350 l 517 165 q 682 -24 585 32 l 879 133 l 849 168 q 788 143 808 143 q 517 610 714 143 l 601 789 l 751 707 l 839 874 l 640 975 l 490 661 q 428 780 458 729 q 371 865 399 831 q 243 975 315 936 l 44 797 l 69 769 q 75 774 72 771 q 81 779 78 776 q 133 806 113 806 q 251 700 181 806 q 385 433 322 593 l 263 168 l 117 243 z "},"y":{"ha":793,"x_min":28,"x_max":754,"o":"m 228 975 l 28 807 l 53 779 l 63 788 q 113 811 90 811 q 157 761 149 811 q 158 735 158 754 q 158 683 158 715 l 158 247 q 147 114 158 151 q 86 11 136 78 q 44 -53 53 -31 q 32 -128 32 -85 q 85 -244 32 -203 q 236 -286 139 -286 q 400 -256 333 -286 q 469 -187 469 -226 q 457 -158 469 -171 q 428 -146 444 -146 q 357 -189 400 -146 q 219 -244 301 -244 q 119 -213 157 -244 q 81 -132 81 -182 q 119 -36 81 -75 q 279 75 157 1 q 649 356 542 228 q 754 646 754 482 q 626 967 754 839 l 356 751 l 356 768 q 328 886 356 843 q 228 975 301 929 m 353 169 l 353 700 l 488 807 q 563 569 563 700 q 504 349 563 458 q 353 169 449 240 z "},"z":{"ha":628,"x_min":40,"x_max":568,"o":"m 281 975 l 40 793 l 64 761 l 163 831 l 340 688 l 64 396 l 89 375 q 215 414 161 414 q 317 371 278 414 q 356 257 356 328 q 239 43 356 147 q 144 -53 167 -21 q 122 -132 122 -87 q 164 -229 122 -190 q 268 -268 206 -268 q 335 -226 335 -268 q 300 -199 335 -199 q 279 -203 292 -199 l 251 -208 q 236 -210 249 -210 q 168 -137 168 -210 q 196 -71 168 -101 q 313 7 226 -40 q 513 156 456 89 q 568 314 568 219 q 494 489 568 419 q 314 560 421 560 q 292 559 303 560 q 269 557 281 558 l 521 821 l 506 842 q 485 840 492 840 q 478 839 479 839 q 369 901 446 839 l 281 975 z "},"{":{"ha":850,"x_min":158,"x_max":850,"o":"m 850 -371 l 850 -322 q 653 -243 729 -322 q 579 -62 579 -167 l 579 124 q 489 394 579 321 q 210 481 418 453 q 488 578 407 514 q 579 796 579 650 l 579 985 q 635 1221 579 1157 q 850 1292 690 1292 l 850 1342 q 456 996 456 1342 l 456 824 q 383 597 456 661 q 158 522 322 547 l 158 444 q 396 358 329 425 q 456 193 456 300 l 456 -49 q 850 -371 456 -371 z "},"|":{"ha":247,"x_min":158,"x_max":247,"o":"m 246 -189 l 247 1342 l 158 1342 l 158 -189 l 246 -189 z "},"}":{"ha":850,"x_min":158,"x_max":850,"o":"m 850 444 l 850 522 q 628 597 683 547 q 557 824 557 661 l 557 996 q 158 1342 557 1342 l 158 1292 q 375 1222 318 1292 q 433 985 433 1153 l 433 796 q 524 578 433 649 q 800 481 604 514 q 522 394 592 453 q 433 124 433 322 l 433 -62 q 360 -243 433 -167 q 158 -322 281 -322 l 158 -371 q 438 -301 335 -371 q 557 -49 557 -218 l 557 193 q 614 358 557 299 q 850 444 683 425 z "},"~":{"ha":897,"x_min":132,"x_max":806,"o":"m 372 1399 l 132 1197 l 174 1165 l 271 1246 l 531 1093 l 806 1333 l 765 1368 l 632 1250 l 372 1399 z "},"‚":{"ha":461,"x_min":103,"x_max":382,"o":"m 121 -183 q 382 132 326 -103 l 239 269 l 103 128 l 115 114 q 190 -15 190 40 q 103 -140 190 -69 l 121 -183 z "},"ƒ":{"ha":636,"x_min":-154,"x_max":700,"o":"m 149 935 l 129 831 l 219 831 l 101 156 q 10 -181 56 -93 q -154 -328 -33 -267 l -147 -356 q 289 115 210 -331 l 414 831 l 540 831 l 558 935 l 433 935 l 486 1229 l 643 1190 l 700 1343 l 513 1389 q 389 1298 444 1336 q 290 1233 333 1260 l 238 935 l 149 935 z "},"„":{"ha":733,"x_min":97,"x_max":665,"o":"m 113 -153 q 350 132 299 -79 l 221 256 l 97 128 l 111 114 q 176 0 176 46 q 97 -112 176 -49 l 113 -153 m 429 -153 q 665 132 617 -81 l 539 256 l 414 128 l 428 114 q 496 0 496 46 q 414 -112 496 -47 l 429 -153 z "},"…":{"ha":1382,"x_min":125,"x_max":1333,"o":"m 1189 260 l 1047 115 l 1189 -24 l 1333 115 l 1189 260 m 268 260 l 125 115 l 268 -24 l 411 115 l 268 260 m 728 260 l 586 115 l 728 -24 l 872 115 l 728 260 z "},"†":{"ha":781,"x_min":-1,"x_max":792,"o":"m 643 464 l 792 600 q 717 667 767 622 q 674 706 692 689 q 644 735 656 724 q 549 661 582 679 q 433 632 501 636 q 536 881 433 761 q 390 1039 467 940 q 244 881 308 935 q 290 819 269 851 q 324 753 311 786 q 344 688 338 719 q 350 631 351 657 q 138 732 239 639 l -1 600 q 83 517 47 551 q 138 463 118 482 q 351 567 243 563 q 344 239 353 368 q 317 44 335 110 q 246 -126 297 -21 q 321 -224 285 -175 q 390 -322 357 -274 q 444 -242 425 -271 q 468 -208 464 -214 q 535 -129 497 -171 q 486 -17 504 -64 q 461 60 468 29 q 436 238 442 142 q 435 294 435 251 q 433 414 435 339 q 433 569 429 532 q 643 464 542 564 z "},"ˆ":{"ha":744,"x_min":81,"x_max":692,"o":"m 364 1410 l 81 1115 l 124 1093 l 278 1249 l 565 1093 l 692 1222 l 364 1410 z "},"‰":{"ha":1514,"x_min":67,"x_max":1451,"o":"m 67 924 q 289 622 67 715 q 439 767 382 672 q 497 964 497 863 q 438 1149 497 1068 q 274 1264 378 1229 q 67 924 67 1119 m 800 1250 l 164 18 l 225 -12 l 861 1219 l 800 1250 m 524 274 q 749 -24 524 68 q 897 118 842 25 q 956 315 956 211 q 940 414 956 367 q 896 500 925 461 q 826 568 867 539 q 735 614 785 597 q 524 274 524 468 m 404 879 q 364 736 404 797 q 280 777 318 751 q 215 836 242 803 q 173 908 188 869 q 158 988 158 947 q 201 1144 158 1072 q 404 879 404 1075 m 864 229 q 821 86 864 147 q 676 188 732 115 q 619 340 619 261 q 661 496 619 426 q 864 229 864 426 m 1019 274 q 1243 -24 1019 68 q 1393 118 1336 24 q 1451 315 1451 211 q 1435 414 1451 367 q 1391 500 1419 461 q 1322 568 1363 539 q 1231 614 1281 597 q 1019 274 1019 468 m 1360 229 q 1317 86 1360 147 q 1172 188 1228 115 q 1115 340 1115 261 q 1156 496 1115 426 q 1360 229 1360 426 z "},"Š":{"ha":1531,"x_min":96,"x_max":1482,"o":"m 1028 1208 l 643 1346 q 297 892 297 1085 l 297 883 q 299 872 299 879 q 133 664 133 807 q 222 501 133 558 q 479 444 311 444 l 521 444 q 563 446 549 446 q 585 447 578 446 l 517 325 q 440 335 472 332 q 385 339 407 339 q 175 288 256 339 q 96 154 96 235 q 160 28 96 75 q 332 -18 224 -18 q 731 103 481 -18 q 757 90 747 93 l 839 60 l 921 24 q 946 11 935 17 q 1482 574 1482 276 q 1352 825 1482 736 q 985 914 1222 914 q 945 913 965 914 q 906 911 925 913 l 1124 1290 l 1089 1313 l 1028 1208 m 604 1178 q 943 1063 732 1178 l 853 907 q 835 906 842 906 q 824 906 828 906 q 692 895 744 899 q 617 892 640 892 q 419 1021 419 892 q 433 1083 419 1054 q 472 1133 447 1113 q 531 1166 497 1154 q 604 1178 564 1178 m 718 736 l 758 740 l 685 617 q 567 608 613 611 q 499 606 521 606 q 251 740 251 606 q 304 833 251 796 q 375 747 328 769 q 539 725 424 725 q 603 728 558 725 q 718 736 647 731 m 769 624 q 760 623 768 624 q 736 621 751 622 l 810 746 q 931 754 888 751 q 985 757 974 757 q 1135 738 1068 757 q 1249 685 1201 719 q 1321 601 1296 650 q 1346 492 1346 551 q 1108 149 1346 311 q 964 204 1038 181 q 979 213 974 210 q 988 218 985 217 q 1109 292 1060 258 q 1186 354 1158 326 q 1240 475 1240 410 q 1172 599 1240 554 q 986 644 1104 644 q 906 640 932 644 l 769 624 m 589 313 l 563 318 l 636 447 q 669 451 663 451 l 874 475 q 917 479 894 478 q 964 481 940 481 q 1046 460 1014 481 q 1078 407 1078 439 q 914 238 1078 338 l 897 228 q 739 274 807 257 q 685 289 728 279 l 589 313 m 318 189 q 672 121 485 189 q 321 21 469 21 q 183 104 183 21 q 318 189 183 189 m 846 1464 l 1128 1757 l 1085 1779 l 932 1624 l 644 1779 l 518 1651 l 846 1464 z "},"‹":{"ha":526,"x_min":67,"x_max":460,"o":"m 340 114 l 454 226 l 208 569 l 460 874 l 404 924 l 67 499 l 340 114 z "},"Œ":{"ha":2457,"x_min":96,"x_max":2461,"o":"m 247 675 q 438 1058 247 918 l 438 542 q 435 469 438 499 q 431 422 433 439 q 372 322 418 365 q 247 675 247 497 m 622 1172 q 675 1170 650 1172 q 724 1165 700 1168 l 724 129 q 403 289 533 153 q 585 465 549 403 q 622 663 622 529 l 622 1172 m 990 801 q 767 893 876 801 l 767 1163 q 911 1128 843 1151 q 1037 1069 979 1104 q 1139 990 1094 1035 q 1213 893 1183 944 q 990 801 1110 801 m 982 636 q 767 550 865 636 l 767 849 q 997 761 876 761 q 1229 849 1110 761 q 1257 692 1257 763 q 1232 524 1257 628 q 982 636 1108 636 m 783 129 l 767 129 l 767 490 q 985 594 856 594 q 1217 478 1121 594 q 1042 226 1164 324 q 783 129 919 129 m 1956 168 l 1956 750 l 2276 739 l 2379 921 l 2151 926 l 2429 1207 l 2418 1235 q 2394 1233 2407 1233 q 2369 1233 2382 1233 q 2010 1339 2221 1233 l 1622 1031 l 1622 576 q 1610 472 1622 499 q 1551 400 1599 443 q 1443 706 1457 533 q 1444 725 1444 715 q 1444 746 1444 735 q 1444 768 1444 757 q 1443 792 1444 781 q 1724 1221 1463 1044 l 1706 1251 q 1386 989 1490 1136 q 1168 1219 1314 1128 q 824 1342 1022 1311 l 183 956 q 96 565 96 749 q 258 150 96 318 q 661 -18 421 -18 q 964 75 804 -18 q 1268 332 1129 169 q 1322 400 1301 369 q 1547 96 1390 210 q 1903 -19 1704 -19 q 2217 67 2074 -19 q 2461 322 2360 154 l 2446 342 q 1976 168 2214 168 l 1956 168 m 2235 1068 l 1956 788 l 1956 1171 q 2087 1109 2018 1135 q 2235 1068 2156 1083 m 1810 1108 l 1913 1190 l 1913 174 q 1574 368 1701 207 l 1683 457 q 1790 568 1771 528 q 1810 704 1810 611 l 1810 1108 z "},"‘":{"ha":383,"x_min":67,"x_max":318,"o":"m 303 1342 q 67 1058 115 1269 l 193 935 l 318 1063 l 304 1074 q 238 1190 238 1142 q 318 1304 238 1242 l 303 1342 z "},"’":{"ha":383,"x_min":67,"x_max":318,"o":"m 81 935 q 318 1217 264 1003 l 190 1342 l 67 1214 l 79 1203 q 146 1086 146 1144 q 67 972 146 1032 l 81 935 z "},"“":{"ha":700,"x_min":67,"x_max":635,"o":"m 303 1342 q 67 1058 115 1269 l 193 935 l 318 1063 l 304 1074 q 238 1190 238 1142 q 318 1304 238 1242 l 303 1342 m 621 1342 q 383 1058 431 1272 l 510 935 l 635 1063 l 622 1074 q 557 1190 557 1139 q 635 1304 557 1242 l 621 1342 z "},"”":{"ha":700,"x_min":67,"x_max":635,"o":"m 81 935 q 318 1217 264 1003 l 190 1342 l 67 1214 l 79 1203 q 146 1086 146 1144 q 67 972 146 1032 l 81 935 m 399 935 q 635 1217 585 1004 l 507 1342 l 383 1214 l 396 1203 q 464 1086 464 1143 q 383 972 464 1036 l 399 935 z "},"•":{"ha":611,"x_min":75,"x_max":536,"o":"m 536 460 q 468 622 536 556 q 306 690 401 690 q 142 622 210 690 q 75 460 75 556 q 142 293 75 361 q 306 226 210 226 q 469 293 403 226 q 536 460 536 361 z "},"–":{"ha":967,"x_min":147,"x_max":819,"o":"m 819 579 l 219 579 q 187 499 204 539 q 147 419 169 458 l 750 419 q 787 510 769 471 q 819 579 804 550 z "},"—":{"ha":1203,"x_min":85,"x_max":1129,"o":"m 1129 579 l 157 579 q 121 492 139 532 q 85 419 103 453 l 1060 419 q 1097 510 1079 471 q 1129 579 1114 550 z "},"˜":{"ha":897,"x_min":132,"x_max":806,"o":"m 372 1399 l 132 1197 l 174 1165 l 271 1246 l 531 1093 l 806 1333 l 765 1368 l 632 1250 l 372 1399 z "},"™":{"ha":1146,"x_min":28,"x_max":1117,"o":"m 58 813 q 128 879 68 879 l 178 879 l 178 547 q 117 492 178 492 l 117 461 l 360 461 l 360 492 q 300 547 300 492 l 300 879 l 351 879 q 418 813 407 879 l 449 813 l 449 910 l 28 910 l 28 813 l 58 813 m 490 910 l 490 879 q 540 860 513 879 q 568 822 568 840 l 568 547 q 514 492 568 496 l 514 461 l 664 461 l 664 492 q 608 547 608 492 l 608 768 l 754 463 l 772 463 l 932 768 l 935 768 l 935 547 q 875 492 935 492 l 875 461 l 1115 461 l 1115 492 q 1057 547 1057 492 l 1057 833 q 1117 879 1057 879 l 1117 910 l 968 910 l 811 610 l 665 910 l 490 910 z "},"š":{"ha":868,"x_min":53,"x_max":814,"o":"m 304 351 l 53 -1 l 79 -24 q 272 51 172 51 q 496 -24 376 51 q 768 128 615 83 l 768 513 l 565 631 l 733 861 q 814 1046 814 971 q 746 1124 814 1124 q 688 1068 688 1124 q 692 1042 686 1054 q 707 1019 699 1031 q 723 994 715 1007 q 731 967 731 982 q 632 903 731 903 q 378 975 517 903 q 327 914 354 940 q 272 868 300 888 q 121 801 215 831 l 121 451 l 304 351 m 454 471 l 569 407 l 569 142 q 375 200 461 200 q 243 175 315 200 l 454 471 m 411 500 l 314 557 l 314 821 q 524 758 407 758 q 558 759 540 758 q 596 761 576 760 l 411 500 m 468 1093 l 751 1389 l 707 1410 l 556 1256 l 265 1410 l 140 1282 l 468 1093 z "},"›":{"ha":526,"x_min":106,"x_max":499,"o":"m 225 924 l 113 811 l 356 468 l 106 164 l 158 114 l 499 539 l 225 924 z "},"œ":{"ha":1089,"x_min":64,"x_max":1067,"o":"m 425 -24 q 490 22 454 0 q 569 67 526 44 q 728 -12 633 39 q 741 -18 735 -15 q 751 -24 747 -21 l 1040 174 l 1021 201 l 881 106 q 798 149 840 128 q 708 193 756 171 l 708 376 l 1067 679 l 828 996 q 643 893 697 921 q 603 874 611 876 q 593 865 596 872 l 579 872 q 472 930 517 904 q 399 975 426 956 q 121 813 282 869 l 121 365 q 117 246 121 268 q 64 147 106 179 l 64 124 q 425 -24 249 110 m 517 731 l 517 247 q 483 147 508 178 l 313 221 l 313 819 l 517 731 m 910 613 l 708 443 l 708 874 l 910 613 z "},"Ÿ":{"ha":1421,"x_min":96,"x_max":1381,"o":"m 139 1267 l 158 1233 q 233 1256 201 1256 q 372 1183 331 1256 q 414 944 414 1111 l 414 874 q 250 935 317 935 q 143 906 199 935 l 149 874 q 163 875 156 875 q 178 875 171 875 q 347 801 281 875 q 414 613 414 728 l 414 574 q 217 647 315 647 q 149 638 183 647 l 149 613 q 259 583 210 608 q 342 517 308 558 q 395 417 376 475 q 414 292 414 360 l 414 257 q 186 185 275 257 q 96 1 96 111 q 182 -190 96 -112 q 393 -269 267 -269 q 754 -142 519 -269 q 906 -83 864 -83 q 949 -111 949 -83 q 942 -131 949 -112 q 914 -200 914 -169 q 938 -263 914 -237 q 997 -289 961 -289 q 1086 -193 1086 -289 q 1014 -68 1086 -119 q 839 -18 943 -18 q 678 -44 765 -18 q 622 -65 660 -51 q 522 -101 583 -79 q 325 -150 389 -150 q 255 -137 288 -150 q 199 -101 222 -124 q 161 -49 175 -79 q 147 18 147 -18 q 231 163 147 111 q 465 215 314 215 q 613 211 514 215 q 760 207 710 207 q 1228 353 1076 207 q 1381 806 1381 499 q 1272 1147 1381 1014 q 997 1282 1167 1282 q 624 1142 863 1282 q 600 1125 608 1128 q 340 1342 558 1342 q 139 1267 228 1342 m 688 257 l 600 257 l 600 1064 q 688 1118 660 1103 l 688 257 m 758 257 l 731 257 l 731 536 q 938 617 828 617 q 1163 524 1056 617 q 758 257 1075 257 m 936 663 q 731 589 832 663 l 731 858 q 946 779 828 779 q 1058 799 1008 779 q 1111 827 1082 810 q 1172 871 1140 844 q 1186 728 1186 807 q 1172 574 1186 638 q 936 663 1058 663 m 942 821 q 888 826 913 821 q 838 842 863 831 q 787 871 813 853 q 731 917 761 889 l 731 1142 q 872 1178 814 1178 q 1051 1106 974 1178 q 1160 917 1133 1032 q 942 821 1065 821 m 647 1721 l 524 1597 l 647 1474 l 771 1597 l 647 1721 m 1015 1721 l 890 1597 l 1015 1474 l 1136 1597 l 1015 1721 z "},"¡":{"ha":563,"x_min":117,"x_max":446,"o":"m 285 -24 l 446 133 q 306 879 326 442 l 260 879 q 117 142 247 446 l 285 -24 m 285 943 l 426 1082 l 285 1224 l 146 1082 l 285 943 z "},"¢":{"ha":717,"x_min":67,"x_max":724,"o":"m 435 314 l 435 914 l 593 829 l 724 982 l 446 1133 l 435 1125 l 439 1296 l 374 1256 l 382 1086 l 367 1076 q 67 547 67 836 q 382 117 67 244 l 382 35 q 380 8 382 36 q 375 -78 378 -19 l 439 -36 q 435 104 435 51 q 456 100 447 101 q 469 97 464 99 l 626 278 q 594 273 610 275 q 563 271 578 271 q 435 314 504 271 m 346 960 l 382 943 l 382 347 q 246 621 246 446 q 346 960 246 786 z "},"£":{"ha":1229,"x_min":75,"x_max":1185,"o":"m 832 1264 l 374 1036 q 342 875 342 943 q 374 683 342 814 l 142 683 l 85 522 l 429 522 q 489 253 489 381 q 488 226 489 239 q 486 201 488 214 q 262 113 364 161 q 75 8 160 64 l 96 -24 q 199 16 143 -1 q 322 49 256 33 q 568 79 453 79 q 1078 -24 810 79 l 1185 181 q 807 257 994 257 q 547 219 693 257 q 631 361 607 303 q 654 492 654 421 q 654 507 654 500 q 653 522 654 515 l 924 522 l 985 683 l 626 683 q 582 897 582 801 q 653 1111 582 996 l 1025 888 l 1168 1058 l 832 1264 z "},"¤":{"ha":846,"x_min":44,"x_max":771,"o":"m 733 829 l 771 982 q 631 1001 704 1001 q 468 978 543 1001 q 333 910 393 954 q 231 801 274 865 q 165 653 188 736 l 44 653 l 44 563 l 149 563 q 149 478 149 510 q 150 436 149 447 l 44 436 l 44 347 l 163 347 q 307 93 201 183 q 576 3 413 3 q 751 26 664 3 l 718 175 q 629 165 675 165 q 360 347 439 165 l 685 347 l 685 436 l 335 436 q 333 469 333 453 q 332 501 332 486 q 333 532 332 517 q 335 563 333 547 l 685 563 l 685 653 l 361 653 q 640 842 446 842 q 733 829 689 842 z "},"¥":{"ha":1115,"x_min":-24,"x_max":1143,"o":"m 113 443 l 408 443 l 408 0 l 710 0 l 710 443 l 946 443 l 1011 579 l 710 579 q 714 640 713 615 q 717 678 715 664 l 967 678 l 1031 814 l 726 814 q 831 1086 757 971 q 928 1038 874 1063 q 1050 989 983 1014 q 1059 985 1053 988 q 1072 979 1065 983 l 1143 1128 q 893 1267 990 1197 q 799 1133 836 1192 q 742 1032 761 1075 q 689 858 706 953 q 674 713 679 801 q 669 501 669 624 l 669 40 l 601 40 l 601 439 q 579 806 601 651 q 511 1061 557 961 q 394 1210 465 1161 q 226 1258 324 1258 q -24 1074 56 1258 l 0 1051 q 138 1124 71 1124 q 286 1038 221 1124 q 374 814 351 951 l 158 814 l 81 678 l 396 678 q 404 579 401 622 l 178 579 l 113 443 z "},"¦":{"ha":500,"x_min":257,"x_max":436,"o":"m 257 457 l 436 457 l 436 906 l 257 906 l 257 457 m 257 -207 l 436 -207 l 436 192 l 257 192 l 257 -207 z "},"§":{"ha":696,"x_min":50,"x_max":640,"o":"m 528 147 q 640 364 640 303 q 601 457 640 418 q 534 510 565 486 q 475 551 503 533 q 349 639 399 604 q 274 693 299 674 q 218 767 218 735 q 249 829 218 793 q 304 867 279 867 q 342 853 322 867 q 417 799 381 825 q 488 746 453 772 l 579 871 q 433 971 490 933 q 347 1024 375 1008 q 90 679 90 803 q 164 560 90 625 q 90 465 107 489 q 50 358 50 401 q 204 168 50 286 q 315 88 271 119 q 382 40 358 56 q 463 -27 443 -1 q 483 -81 483 -53 q 476 -115 483 -97 q 457 -151 468 -133 q 431 -183 446 -168 q 401 -208 415 -199 q 215 -79 215 -135 q 239 -26 215 -78 l 196 10 l 122 -75 q 50 -174 50 -157 q 75 -206 50 -185 q 333 -371 217 -324 q 365 -344 354 -353 q 375 -336 375 -336 q 606 7 606 -143 q 528 147 606 69 m 400 393 q 521 278 521 306 q 475 189 521 253 q 181 443 181 408 q 219 518 181 463 q 335 438 290 469 q 400 393 381 407 z "},"¨":{"ha":875,"x_min":132,"x_max":744,"o":"m 256 1339 l 132 1215 l 256 1092 l 378 1215 l 256 1339 m 622 1339 l 497 1215 l 622 1092 l 744 1215 l 622 1339 z "},"©":{"ha":818,"x_min":24,"x_max":793,"o":"m 414 908 q 133 800 243 908 q 24 522 24 694 q 67 349 24 433 q 207 194 117 249 q 410 139 297 139 q 585 178 507 139 q 738 320 682 228 q 793 522 793 413 q 682 793 793 678 q 414 908 571 908 m 413 833 q 625 742 539 831 q 711 522 711 651 q 626 299 711 388 q 410 211 543 211 q 193 301 281 211 q 106 522 106 393 q 193 746 106 656 q 413 833 281 838 m 608 483 l 528 483 q 414 392 517 392 q 329 433 358 392 q 303 525 303 468 q 331 623 303 585 q 414 661 360 661 q 525 589 507 661 l 604 589 q 542 707 596 664 q 413 750 488 750 q 325 733 364 750 q 258 687 286 717 q 215 616 231 657 q 200 526 200 575 q 257 365 200 426 q 411 303 314 303 q 549 351 496 303 q 608 483 603 400 z "},"«":{"ha":831,"x_min":67,"x_max":767,"o":"m 340 114 l 454 226 l 208 569 l 460 874 l 404 924 l 67 499 l 340 114 m 646 114 l 760 226 l 515 569 l 767 874 l 710 924 l 372 499 l 646 114 z "},"¬":{"ha":1049,"x_min":96,"x_max":1049,"o":"m 1049 -332 l 181 1349 l 96 1307 l 964 -375 l 1049 -332 z "},"®":{"ha":818,"x_min":24,"x_max":793,"o":"m 414 908 q 133 800 243 908 q 24 522 24 694 q 67 349 24 433 q 207 194 117 249 q 410 139 297 139 q 585 178 507 139 q 738 320 682 228 q 793 522 793 413 q 682 793 793 678 q 414 908 571 908 m 413 833 q 625 742 539 831 q 711 522 711 651 q 626 299 711 388 q 410 211 543 211 q 190 299 275 211 q 106 522 106 385 q 193 746 106 656 q 413 833 281 838 m 246 740 l 246 313 l 349 313 l 349 488 l 396 488 q 468 451 447 488 q 477 419 474 440 q 482 368 481 399 q 492 313 485 322 l 589 313 q 578 378 581 329 q 574 429 576 408 q 568 461 571 450 q 513 517 556 503 q 583 621 583 547 q 428 740 583 740 l 246 740 m 349 678 l 411 678 q 482 613 482 678 q 407 547 482 547 l 349 547 l 349 678 z "},"°":{"ha":631,"x_min":132,"x_max":499,"o":"m 132 1239 q 314 1036 132 1094 q 450 1133 401 1072 q 499 1265 499 1194 q 314 1474 499 1415 q 132 1239 132 1379 m 422 1219 q 375 1119 422 1158 q 207 1278 207 1167 q 251 1389 207 1342 q 376 1327 331 1372 q 422 1219 422 1282 z "},"²":{"ha":935,"x_min":85,"x_max":949,"o":"m 556 300 q 539 193 556 219 q 511 165 532 183 q 454 121 490 147 q 404 158 429 140 q 356 194 379 176 l 356 831 l 556 831 l 556 300 m 731 -24 l 936 142 l 911 167 l 850 121 q 751 194 800 161 l 751 831 l 882 831 l 882 935 l 751 935 l 751 1176 l 917 1135 l 949 1288 l 758 1336 q 640 1242 690 1281 q 556 1181 590 1203 l 556 935 l 356 935 l 356 1176 l 521 1135 l 551 1288 l 361 1336 q 244 1242 294 1281 q 158 1181 193 1203 l 158 935 l 85 935 l 85 831 l 158 831 l 158 315 q 156 255 158 279 q 151 217 154 231 q 96 142 142 168 l 96 121 q 333 -24 222 79 l 507 115 q 731 -24 622 76 z "},"³":{"ha":921,"x_min":85,"x_max":928,"o":"m 517 165 l 515 167 l 454 121 q 404 158 429 140 q 356 194 379 176 l 356 826 l 550 826 l 550 329 q 550 274 550 294 q 549 243 550 253 q 517 165 542 190 m 744 1229 l 486 888 l 486 935 l 356 935 l 356 1176 l 521 1135 l 551 1288 l 361 1336 q 244 1241 294 1279 q 158 1181 193 1203 l 158 935 l 85 935 l 85 826 l 158 826 l 158 315 q 156 255 158 279 q 151 217 154 231 q 96 142 142 168 l 96 121 q 333 -24 222 79 l 500 111 q 719 -24 629 71 l 928 147 l 899 181 l 838 132 q 794 165 817 149 q 744 199 771 182 l 744 828 l 910 828 l 910 935 l 744 935 l 744 1229 z "},"´":{"ha":547,"x_min":94,"x_max":474,"o":"m 303 1326 l 94 1090 l 404 1153 l 474 1326 l 303 1326 z "},"¶":{"ha":731,"x_min":82,"x_max":739,"o":"m 667 853 l 739 853 l 739 919 l 388 919 q 82 681 82 919 q 149 510 82 572 q 326 449 217 449 l 351 449 l 351 -146 l 440 -146 l 440 853 l 578 853 l 578 -146 l 667 -146 l 667 853 z "},"¸":{"ha":361,"x_min":35,"x_max":331,"o":"m 331 17 l 247 17 l 35 -162 q 151 -303 151 -219 q 121 -386 151 -331 l 128 -400 q 246 -242 246 -337 q 169 -115 246 -190 l 331 17 z "},"¹":{"ha":950,"x_min":85,"x_max":963,"o":"m 767 194 l 767 1176 l 932 1135 l 963 1288 l 772 1336 q 655 1241 706 1279 q 569 1181 604 1203 l 569 935 l 496 935 l 496 831 l 569 831 l 569 333 q 553 204 569 233 q 454 121 543 186 q 404 158 429 140 q 356 194 379 176 l 356 1176 l 521 1135 l 551 1288 l 361 1336 q 244 1241 294 1279 q 158 1181 193 1203 l 158 935 l 85 935 l 85 831 l 158 831 l 158 315 q 156 255 158 279 q 151 217 154 231 q 96 142 142 168 l 96 121 q 333 -24 222 79 l 513 119 q 744 -24 638 76 l 951 142 l 926 167 l 865 121 q 815 158 840 140 q 767 194 790 176 z "},"º":{"ha":932,"x_min":85,"x_max":933,"o":"m 750 1229 l 471 861 l 471 828 l 556 828 l 556 351 q 514 167 556 197 q 479 140 494 151 q 454 121 464 128 q 404 158 429 140 q 356 194 379 176 l 356 1176 l 521 1135 l 551 1288 l 361 1336 q 244 1241 294 1279 q 158 1181 193 1203 l 158 935 l 85 935 l 85 831 l 158 831 l 158 315 q 156 255 158 279 q 151 217 154 231 q 96 142 142 168 l 96 121 q 333 -24 222 79 l 501 111 q 725 -24 629 76 l 933 147 l 903 181 l 842 132 q 750 199 801 165 l 750 828 l 915 828 l 915 935 l 750 935 l 750 1229 z "},"»":{"ha":831,"x_min":101,"x_max":800,"o":"m 218 924 l 106 811 l 350 468 l 101 164 l 154 114 l 492 539 l 218 924 m 524 924 l 413 811 l 656 468 l 404 164 l 460 114 l 800 539 l 524 924 z "},"¼":{"ha":1850,"x_min":85,"x_max":1738,"o":"m 356 194 l 356 1176 l 521 1135 l 551 1288 l 361 1336 q 244 1241 294 1279 q 158 1181 193 1203 l 158 935 l 85 935 l 85 831 l 158 831 l 158 315 q 156 255 158 279 q 151 217 154 231 q 96 142 142 168 l 96 121 q 333 -24 222 79 l 540 142 l 515 167 l 454 121 q 404 158 429 140 q 356 194 379 176 m 1125 176 q 996 89 1050 119 l 792 193 l 792 793 l 954 700 l 1051 846 l 822 975 q 521 779 675 828 l 521 757 q 588 736 575 757 q 596 657 596 724 l 596 257 q 589 174 596 201 q 542 107 579 138 l 542 85 q 883 -36 733 64 l 1075 88 l 1213 -24 l 1386 104 l 1322 176 l 1322 706 l 1474 824 q 1526 758 1514 792 q 1536 672 1536 735 l 1536 199 q 1517 7 1536 74 q 1394 -142 1489 -76 q 1219 -237 1350 -174 l 1196 -250 l 1207 -283 q 1357 -224 1290 -253 q 1474 -168 1424 -196 q 1600 -83 1549 -128 q 1679 14 1651 -37 q 1738 288 1738 115 l 1738 679 q 1714 849 1738 799 q 1599 975 1690 906 l 1322 750 l 1322 1103 q 1346 1232 1322 1188 q 1442 1318 1371 1276 l 1431 1342 q 1199 1225 1275 1317 q 1057 1322 1118 1299 l 1040 1296 q 1108 1211 1093 1251 q 1125 1100 1125 1171 l 1125 176 z "},"½":{"ha":1417,"x_min":82,"x_max":1300,"o":"m 688 176 q 558 89 613 119 l 353 193 l 353 793 l 517 700 l 614 846 l 385 975 q 82 779 238 828 l 82 757 q 150 736 138 757 q 158 657 158 724 l 158 257 q 151 174 158 201 q 104 107 142 138 l 104 85 q 446 -36 296 64 l 638 88 l 775 -24 l 949 104 l 885 176 l 885 706 l 1036 824 q 1089 758 1076 792 q 1099 672 1099 735 l 1099 199 q 1078 7 1099 71 q 956 -142 1050 -76 q 781 -237 914 -174 l 758 -250 l 769 -283 q 919 -224 853 -253 q 1036 -168 986 -196 q 1163 -83 1111 -128 q 1242 14 1214 -37 q 1300 288 1300 115 l 1300 679 q 1276 849 1300 799 q 1161 975 1253 906 l 885 750 l 885 1103 q 908 1232 885 1188 q 1004 1318 933 1276 l 993 1342 q 761 1225 838 1317 q 619 1322 681 1299 l 603 1296 q 671 1211 656 1251 q 688 1100 688 1171 l 688 176 z "},"¾":{"ha":1369,"x_min":82,"x_max":1378,"o":"m 1169 -24 l 1378 142 l 1357 169 l 1308 129 q 1265 213 1278 160 q 1262 240 1265 215 q 1251 308 1258 264 q 1206 456 1239 400 q 1103 571 1176 506 q 1093 578 1097 575 q 1086 585 1089 582 l 1299 778 l 1113 975 l 863 731 l 863 1093 q 876 1224 863 1190 q 968 1313 894 1267 l 961 1342 q 832 1300 875 1321 q 726 1219 776 1274 q 576 1310 672 1282 l 563 1286 q 646 1190 626 1246 q 661 1064 661 1149 l 661 288 q 657 210 661 228 q 613 154 647 168 l 613 151 l 522 115 l 353 193 l 353 793 l 517 700 l 614 846 l 385 975 q 82 779 238 828 l 82 757 l 101 757 q 154 726 144 757 q 158 657 158 714 l 158 257 q 151 174 158 201 q 104 107 142 138 l 104 85 q 401 -24 267 68 l 617 107 q 833 -24 753 67 l 1083 181 q 1094 113 1089 140 q 1107 68 1100 85 q 1169 -24 1121 35 m 960 128 l 863 196 l 863 383 l 946 457 q 1039 358 1013 408 q 1076 226 1063 314 l 960 128 m 1138 682 l 863 433 l 863 682 l 1010 819 l 1138 682 z "},"¿":{"ha":631,"x_min":121,"x_max":619,"o":"m 479 -24 l 619 215 l 596 228 q 465 164 528 164 q 360 207 403 164 q 315 313 315 251 q 343 443 315 372 l 393 565 q 443 832 443 688 q 441 849 443 836 q 439 872 439 863 l 403 872 l 399 842 q 378 735 388 778 q 358 669 368 692 q 261 521 333 606 q 149 367 175 421 q 121 247 121 311 q 213 48 121 118 q 479 -24 306 -22 m 425 944 l 563 1083 l 425 1224 l 285 1083 l 425 944 z "},"À":{"ha":1292,"x_min":96,"x_max":1292,"o":"m 1067 -32 l 1292 157 l 1258 193 q 1186 149 1206 149 q 1144 181 1156 149 q 1135 230 1139 196 q 1129 315 1132 264 l 1099 985 q 1094 1057 1094 1007 q 1124 1207 1094 1158 q 1169 1256 1139 1231 q 1247 1308 1200 1282 l 1225 1342 q 1171 1315 1194 1328 q 1131 1290 1147 1301 q 1092 1258 1115 1279 q 1036 1207 1068 1238 q 1025 1197 1029 1200 q 1019 1193 1021 1194 q 596 1349 801 1349 q 246 1207 396 1349 q 96 879 96 1067 q 161 658 96 761 q 347 475 226 554 l 204 269 q 121 136 139 175 q 103 56 103 99 q 123 -1 103 24 q 169 -26 143 -26 q 219 19 219 -26 q 200 74 219 42 q 181 121 181 106 q 194 151 181 138 q 225 164 207 164 q 610 -32 328 164 l 938 229 l 942 178 q 969 56 946 96 q 1067 -32 992 18 m 372 438 l 932 438 l 936 285 l 744 136 l 292 325 l 372 438 m 833 1100 q 867 1076 850 1089 q 901 1047 883 1063 l 921 575 l 468 575 l 833 1100 m 532 943 q 644 903 585 943 l 375 518 q 169 853 169 661 q 282 1089 169 993 q 558 1186 393 1186 q 797 1124 690 1186 l 742 1042 q 593 1064 658 1064 q 361 879 433 1064 l 394 864 q 532 943 458 943 m 636 1528 l 946 1465 l 739 1701 l 568 1701 l 636 1528 z "},"Á":{"ha":1292,"x_min":96,"x_max":1292,"o":"m 1067 -32 l 1292 157 l 1258 193 q 1186 149 1206 149 q 1144 181 1156 149 q 1135 230 1139 196 q 1129 315 1132 264 l 1099 985 q 1094 1057 1094 1007 q 1124 1207 1094 1158 q 1169 1256 1139 1231 q 1247 1308 1200 1282 l 1225 1342 q 1171 1315 1194 1328 q 1131 1290 1147 1301 q 1092 1258 1115 1279 q 1036 1207 1068 1238 q 1025 1197 1029 1200 q 1019 1193 1021 1194 q 596 1349 801 1349 q 246 1207 396 1349 q 96 879 96 1067 q 161 658 96 761 q 347 475 226 554 l 204 269 q 121 136 139 175 q 103 56 103 99 q 123 -1 103 24 q 169 -26 143 -26 q 219 19 219 -26 q 200 74 219 42 q 181 121 181 106 q 194 151 181 138 q 225 164 207 164 q 610 -32 328 164 l 938 229 l 942 178 q 969 56 946 96 q 1067 -32 992 18 m 372 438 l 932 438 l 936 285 l 744 136 l 292 325 l 372 438 m 833 1100 q 867 1076 850 1089 q 901 1047 883 1063 l 921 575 l 468 575 l 833 1100 m 532 943 q 644 903 585 943 l 375 518 q 169 853 169 661 q 282 1089 169 993 q 558 1186 393 1186 q 797 1124 690 1186 l 742 1042 q 593 1064 658 1064 q 361 879 433 1064 l 394 864 q 532 943 458 943 m 989 1700 l 781 1464 l 1092 1526 l 1161 1700 l 989 1700 z "},"Â":{"ha":1292,"x_min":96,"x_max":1292,"o":"m 1067 -32 l 1292 157 l 1258 193 q 1186 149 1206 149 q 1144 181 1156 149 q 1135 230 1139 196 q 1129 315 1132 264 l 1099 985 q 1094 1057 1094 1007 q 1124 1207 1094 1158 q 1169 1256 1139 1231 q 1247 1308 1200 1282 l 1225 1342 q 1171 1315 1194 1328 q 1131 1290 1147 1301 q 1092 1258 1115 1279 q 1036 1207 1068 1238 q 1025 1197 1029 1200 q 1019 1193 1021 1194 q 596 1349 801 1349 q 246 1207 396 1349 q 96 879 96 1067 q 161 658 96 761 q 347 475 226 554 l 204 269 q 121 136 139 175 q 103 56 103 99 q 123 -1 103 24 q 169 -26 143 -26 q 219 19 219 -26 q 200 74 219 42 q 181 121 181 106 q 194 151 181 138 q 225 164 207 164 q 610 -32 328 164 l 938 229 l 942 178 q 969 56 946 96 q 1067 -32 992 18 m 372 438 l 932 438 l 936 285 l 744 136 l 292 325 l 372 438 m 833 1100 q 867 1076 850 1089 q 901 1047 883 1063 l 921 575 l 468 575 l 833 1100 m 532 943 q 644 903 585 943 l 375 518 q 169 853 169 661 q 282 1089 169 993 q 558 1186 393 1186 q 797 1124 690 1186 l 742 1042 q 593 1064 658 1064 q 361 879 433 1064 l 394 864 q 532 943 458 943 m 885 1779 l 603 1485 l 646 1464 l 800 1618 l 1089 1464 l 1214 1590 l 885 1779 z "},"Ã":{"ha":1292,"x_min":96,"x_max":1292,"o":"m 1067 -32 l 1292 157 l 1258 193 q 1186 149 1206 149 q 1144 181 1156 149 q 1135 230 1139 196 q 1129 315 1132 264 l 1099 985 q 1094 1057 1094 1007 q 1124 1207 1094 1158 q 1169 1256 1139 1231 q 1247 1308 1200 1282 l 1225 1342 q 1171 1315 1194 1328 q 1131 1290 1147 1301 q 1092 1258 1115 1279 q 1036 1207 1068 1238 q 1025 1197 1029 1200 q 1019 1193 1021 1194 q 596 1349 801 1349 q 246 1207 396 1349 q 96 879 96 1067 q 161 658 96 761 q 347 475 226 554 l 204 269 q 121 136 139 175 q 103 56 103 99 q 123 -1 103 24 q 169 -26 143 -26 q 219 19 219 -26 q 200 74 219 42 q 181 121 181 106 q 194 151 181 138 q 225 164 207 164 q 610 -32 328 164 l 938 229 l 942 178 q 969 56 946 96 q 1067 -32 992 18 m 372 438 l 932 438 l 936 285 l 744 136 l 292 325 l 372 438 m 833 1100 q 867 1076 850 1089 q 901 1047 883 1063 l 921 575 l 468 575 l 833 1100 m 532 943 q 644 903 585 943 l 375 518 q 169 853 169 661 q 282 1089 169 993 q 558 1186 393 1186 q 797 1124 690 1186 l 742 1042 q 593 1064 658 1064 q 361 879 433 1064 l 394 864 q 532 943 458 943 m 765 1775 l 524 1575 l 565 1544 l 664 1622 l 924 1471 l 1197 1711 l 1156 1744 l 1025 1628 l 765 1775 z "},"Ä":{"ha":1292,"x_min":96,"x_max":1292,"o":"m 1067 -32 l 1292 157 l 1258 193 q 1186 149 1206 149 q 1144 181 1156 149 q 1135 230 1139 196 q 1129 315 1132 264 l 1099 985 q 1094 1057 1094 1007 q 1124 1207 1094 1158 q 1169 1256 1139 1231 q 1247 1308 1200 1282 l 1225 1342 q 1171 1315 1194 1328 q 1131 1290 1147 1301 q 1092 1258 1115 1279 q 1036 1207 1068 1238 q 1025 1197 1029 1200 q 1019 1193 1021 1194 q 596 1349 801 1349 q 246 1207 396 1349 q 96 879 96 1067 q 161 658 96 761 q 347 475 226 554 l 204 269 q 121 136 139 175 q 103 56 103 99 q 123 -1 103 24 q 169 -26 143 -26 q 219 19 219 -26 q 200 74 219 42 q 181 121 181 106 q 194 151 181 138 q 225 164 207 164 q 610 -32 328 164 l 938 229 l 942 178 q 969 56 946 96 q 1067 -32 992 18 m 372 438 l 932 438 l 936 285 l 744 136 l 292 325 l 372 438 m 833 1100 q 867 1076 850 1089 q 901 1047 883 1063 l 921 575 l 468 575 l 833 1100 m 532 943 q 644 903 585 943 l 375 518 q 169 853 169 661 q 282 1089 169 993 q 558 1186 393 1186 q 797 1124 690 1186 l 742 1042 q 593 1064 658 1064 q 361 879 433 1064 l 394 864 q 532 943 458 943 m 707 1714 l 583 1590 l 707 1467 l 831 1590 l 707 1714 m 1074 1714 l 949 1590 l 1074 1467 l 1196 1590 l 1074 1714 z "},"Å":{"ha":1292,"x_min":96,"x_max":1292,"o":"m 1067 -32 l 1292 157 l 1258 193 q 1186 149 1206 149 q 1144 181 1156 149 q 1135 230 1139 196 q 1129 315 1132 264 l 1099 985 q 1094 1057 1094 1007 q 1124 1207 1094 1158 q 1169 1256 1139 1231 q 1247 1308 1200 1282 l 1225 1342 q 1171 1315 1194 1328 q 1131 1290 1147 1301 q 1092 1258 1115 1279 q 1036 1207 1068 1238 q 1025 1197 1029 1200 q 1019 1193 1021 1194 q 596 1349 801 1349 q 246 1207 396 1349 q 96 879 96 1067 q 161 658 96 761 q 347 475 226 554 l 204 269 q 121 136 139 175 q 103 56 103 99 q 123 -1 103 24 q 169 -26 143 -26 q 219 19 219 -26 q 200 74 219 42 q 181 121 181 106 q 194 151 181 138 q 225 164 207 164 q 610 -32 328 164 l 938 229 l 942 178 q 969 56 946 96 q 1067 -32 992 18 m 372 438 l 932 438 l 936 285 l 744 136 l 292 325 l 372 438 m 833 1100 q 867 1076 850 1089 q 901 1047 883 1063 l 921 575 l 468 575 l 833 1100 m 532 943 q 644 903 585 943 l 375 518 q 169 853 169 661 q 282 1089 169 993 q 558 1186 393 1186 q 797 1124 690 1186 l 742 1042 q 593 1064 658 1064 q 361 879 433 1064 l 394 864 q 532 943 458 943 m 524 1671 q 707 1467 524 1529 q 843 1565 794 1504 q 892 1696 892 1625 q 707 1904 892 1849 q 524 1671 524 1808 m 814 1651 q 768 1551 814 1590 q 644 1615 689 1572 q 600 1711 600 1658 q 644 1819 600 1772 q 769 1758 724 1803 q 814 1651 814 1714 z "},"Æ":{"ha":2096,"x_min":96,"x_max":2099,"o":"m 372 438 l 932 438 l 936 285 l 744 136 l 292 325 l 372 438 m 833 1100 q 867 1076 850 1089 q 901 1047 883 1063 l 921 575 l 468 575 l 833 1100 m 532 943 q 644 903 585 943 l 375 518 q 169 853 169 661 q 282 1089 169 993 q 558 1186 393 1186 q 797 1124 690 1186 l 742 1042 q 593 1064 658 1064 q 361 879 433 1064 l 394 864 q 532 943 458 943 m 1593 168 l 1593 750 l 1914 739 l 2018 921 l 1790 926 l 2068 1207 l 2056 1235 q 2032 1233 2044 1233 q 2008 1233 2021 1233 q 1649 1339 1860 1233 l 1260 1031 l 1260 576 q 1249 472 1260 501 q 1189 400 1238 444 q 1150 464 1167 431 q 1119 533 1133 497 l 1101 900 q 1363 1221 1157 1083 l 1344 1251 q 1205 1167 1267 1211 q 1094 1074 1143 1122 q 1128 1210 1097 1164 q 1247 1308 1158 1257 l 1225 1342 q 1171 1315 1194 1328 q 1131 1290 1147 1301 q 1092 1258 1115 1279 q 1036 1207 1068 1238 q 1025 1197 1029 1200 q 1019 1193 1021 1194 q 596 1349 801 1349 q 246 1207 396 1349 q 96 879 96 1067 q 161 658 96 761 q 347 475 226 554 l 204 269 q 121 136 139 175 q 103 56 103 99 q 123 -1 103 24 q 169 -26 143 -26 q 219 19 219 -26 q 200 74 219 42 q 181 121 181 106 q 194 151 181 138 q 225 164 207 164 q 610 -32 328 164 l 938 229 l 942 178 q 969 56 946 96 q 1067 -32 992 18 l 1204 82 q 1540 -19 1356 -19 q 1856 67 1713 -19 q 2099 322 1999 154 l 2085 342 q 1615 168 1853 168 l 1593 168 m 1872 1068 l 1593 788 l 1593 1171 q 1725 1109 1656 1135 q 1872 1068 1794 1083 m 1449 1108 l 1551 1190 l 1551 174 q 1213 368 1339 207 l 1321 457 q 1428 568 1408 528 q 1449 704 1449 610 l 1449 1108 z "},"Ç":{"ha":1247,"x_min":96,"x_max":1267,"o":"m 626 1100 l 725 1188 l 725 181 q 386 356 521 201 l 465 422 q 545 497 514 463 q 592 557 576 531 q 610 596 603 576 q 619 635 617 615 q 624 694 622 654 q 626 797 626 735 l 626 1100 m 768 -15 q 1267 332 1068 19 l 1246 357 q 1022 225 1144 272 q 793 176 897 176 l 767 176 l 767 1165 q 1057 1068 922 1092 l 1235 1238 l 1226 1238 q 818 1342 1024 1238 l 435 1015 l 435 594 q 426 482 435 508 q 360 393 411 428 q 253 725 253 553 q 313 981 253 874 q 524 1215 374 1090 l 508 1238 q 204 971 313 1135 q 96 610 96 806 q 257 172 96 353 q 661 -18 418 -6 l 457 -193 q 594 -360 594 -262 q 558 -462 594 -399 l 568 -474 q 708 -287 708 -400 q 704 -253 708 -269 q 690 -221 700 -237 q 663 -184 681 -204 q 619 -137 646 -164 l 768 -15 z "},"È":{"ha":1275,"x_min":96,"x_max":1275,"o":"m 769 169 l 769 751 l 1090 740 l 1194 924 l 967 928 l 1243 1208 l 1232 1238 q 1208 1235 1221 1236 q 1185 1235 1196 1235 q 824 1342 1040 1235 l 436 1032 l 436 578 q 424 474 436 500 q 365 401 413 444 q 256 751 256 557 q 539 1222 256 1032 l 521 1253 q 96 640 96 1029 q 275 172 96 364 q 717 -18 457 -18 q 1031 69 889 -18 q 1275 324 1174 156 l 1260 343 q 792 169 1028 169 l 769 169 m 1049 1071 l 769 789 l 769 1172 q 1049 1071 890 1100 m 624 1110 l 726 1193 l 726 175 q 388 369 515 208 l 497 460 q 604 571 585 531 q 624 706 624 613 l 624 1110 m 617 1528 l 926 1465 l 718 1701 l 549 1701 l 617 1528 z "},"É":{"ha":1275,"x_min":96,"x_max":1275,"o":"m 769 169 l 769 751 l 1090 740 l 1194 924 l 967 928 l 1243 1208 l 1232 1238 q 1208 1235 1221 1236 q 1185 1235 1196 1235 q 824 1342 1040 1235 l 436 1032 l 436 578 q 424 474 436 500 q 365 401 413 444 q 256 751 256 557 q 539 1222 256 1032 l 521 1253 q 96 640 96 1029 q 275 172 96 364 q 717 -18 457 -18 q 1031 69 889 -18 q 1275 324 1174 156 l 1260 343 q 792 169 1028 169 l 769 169 m 1049 1071 l 769 789 l 769 1172 q 1049 1071 890 1100 m 624 1110 l 726 1193 l 726 175 q 388 369 515 208 l 497 460 q 604 571 585 531 q 624 706 624 613 l 624 1110 m 832 1711 l 624 1475 l 935 1538 l 1004 1711 l 832 1711 z "},"Ê":{"ha":1275,"x_min":96,"x_max":1275,"o":"m 769 169 l 769 751 l 1090 740 l 1194 924 l 967 928 l 1243 1208 l 1232 1238 q 1208 1235 1221 1236 q 1185 1235 1196 1235 q 824 1342 1040 1235 l 436 1032 l 436 578 q 424 474 436 500 q 365 401 413 444 q 256 751 256 557 q 539 1222 256 1032 l 521 1253 q 96 640 96 1029 q 275 172 96 364 q 717 -18 457 -18 q 1031 69 889 -18 q 1275 324 1174 156 l 1260 343 q 792 169 1028 169 l 769 169 m 1049 1071 l 769 789 l 769 1172 q 1049 1071 890 1100 m 624 1110 l 726 1193 l 726 175 q 388 369 515 208 l 497 460 q 604 571 585 531 q 624 706 624 613 l 624 1110 m 768 1779 l 486 1485 l 528 1464 l 682 1618 l 969 1464 l 1094 1590 l 768 1779 z "},"Ë":{"ha":1275,"x_min":96,"x_max":1275,"o":"m 769 169 l 769 751 l 1090 740 l 1194 924 l 967 928 l 1243 1208 l 1232 1238 q 1208 1235 1221 1236 q 1185 1235 1196 1235 q 824 1342 1040 1235 l 436 1032 l 436 578 q 424 474 436 500 q 365 401 413 444 q 256 751 256 557 q 539 1222 256 1032 l 521 1253 q 96 640 96 1029 q 275 172 96 364 q 717 -18 457 -18 q 1031 69 889 -18 q 1275 324 1174 156 l 1260 343 q 792 169 1028 169 l 769 169 m 1049 1071 l 769 789 l 769 1172 q 1049 1071 890 1100 m 624 1110 l 726 1193 l 726 175 q 388 369 515 208 l 497 460 q 604 571 585 531 q 624 706 624 613 l 624 1110 m 569 1721 l 446 1597 l 569 1474 l 693 1597 l 569 1721 m 936 1721 l 811 1597 l 936 1474 l 1058 1597 l 936 1721 z "},"Ì":{"ha":1174,"x_min":97,"x_max":1154,"o":"m 97 -6 l 122 -15 q 269 90 182 90 q 457 42 324 90 q 700 -18 618 -18 q 951 97 857 -18 q 1046 408 1046 213 q 1035 571 1046 471 q 1006 810 1025 671 l 1003 833 q 983 992 989 926 q 976 1093 976 1057 q 1010 1222 976 1178 q 1125 1292 1043 1267 q 1154 1300 1143 1296 l 1135 1333 q 821 897 821 1292 q 829 788 821 861 q 853 600 838 714 q 879 384 871 474 q 888 236 888 294 q 739 47 888 47 q 665 63 699 47 q 640 81 654 69 q 606 111 625 93 q 497 199 544 167 q 685 261 632 211 q 739 426 739 311 q 738 485 739 458 q 733 532 736 513 l 715 679 q 701 826 706 760 q 696 946 696 893 q 733 1154 696 1072 q 868 1318 772 1238 l 850 1339 q 714 1307 783 1307 q 560 1329 647 1307 q 443 1347 492 1347 q 353 1331 394 1347 q 281 1287 313 1315 q 230 1218 250 1258 q 204 1128 210 1178 l 228 1124 q 283 1201 253 1179 q 365 1224 313 1224 q 385 1222 372 1224 q 417 1217 397 1219 l 489 1204 q 533 1200 507 1200 q 714 1246 599 1200 q 565 1044 608 1142 q 533 935 543 996 q 521 803 522 875 q 465 810 493 810 q 243 653 329 810 l 261 640 q 294 668 279 657 q 325 685 310 679 q 357 694 340 692 q 396 697 374 697 q 472 676 438 697 q 529 617 506 656 q 566 524 553 578 q 579 407 579 471 q 572 328 579 360 q 547 276 564 296 q 499 247 529 256 q 426 236 469 238 q 207 176 282 231 q 97 -6 138 125 m 636 1528 l 946 1465 l 739 1701 l 568 1701 l 636 1528 z "},"Í":{"ha":1174,"x_min":97,"x_max":1154,"o":"m 97 -6 l 122 -15 q 269 90 182 90 q 457 42 324 90 q 700 -18 618 -18 q 951 97 857 -18 q 1046 408 1046 213 q 1035 571 1046 471 q 1006 810 1025 671 l 1003 833 q 983 992 989 926 q 976 1093 976 1057 q 1010 1222 976 1178 q 1125 1292 1043 1267 q 1154 1300 1143 1296 l 1135 1333 q 821 897 821 1292 q 829 788 821 861 q 853 600 838 714 q 879 384 871 474 q 888 236 888 294 q 739 47 888 47 q 665 63 699 47 q 640 81 654 69 q 606 111 625 93 q 497 199 544 167 q 685 261 632 211 q 739 426 739 311 q 738 485 739 458 q 733 532 736 513 l 715 679 q 701 826 706 760 q 696 946 696 893 q 733 1154 696 1072 q 868 1318 772 1238 l 850 1339 q 714 1307 783 1307 q 560 1329 647 1307 q 443 1347 492 1347 q 353 1331 394 1347 q 281 1287 313 1315 q 230 1218 250 1258 q 204 1128 210 1178 l 228 1124 q 283 1201 253 1179 q 365 1224 313 1224 q 385 1222 372 1224 q 417 1217 397 1219 l 489 1204 q 533 1200 507 1200 q 714 1246 599 1200 q 565 1044 608 1142 q 533 935 543 996 q 521 803 522 875 q 465 810 493 810 q 243 653 329 810 l 261 640 q 294 668 279 657 q 325 685 310 679 q 357 694 340 692 q 396 697 374 697 q 472 676 438 697 q 529 617 506 656 q 566 524 553 578 q 579 407 579 471 q 572 328 579 360 q 547 276 564 296 q 499 247 529 256 q 426 236 469 238 q 207 176 282 231 q 97 -6 138 125 m 951 1700 l 742 1464 l 1051 1526 l 1121 1700 l 951 1700 z "},"Î":{"ha":1174,"x_min":97,"x_max":1154,"o":"m 97 -6 l 122 -15 q 269 90 182 90 q 457 42 324 90 q 700 -18 618 -18 q 951 97 857 -18 q 1046 408 1046 213 q 1035 571 1046 471 q 1006 810 1025 671 l 1003 833 q 983 992 989 926 q 976 1093 976 1057 q 1010 1222 976 1178 q 1125 1292 1043 1267 q 1154 1300 1143 1296 l 1135 1333 q 821 897 821 1292 q 829 788 821 861 q 853 600 838 714 q 879 384 871 474 q 888 236 888 294 q 739 47 888 47 q 665 63 699 47 q 640 81 654 69 q 606 111 625 93 q 497 199 544 167 q 685 261 632 211 q 739 426 739 311 q 738 485 739 458 q 733 532 736 513 l 715 679 q 701 826 706 760 q 696 946 696 893 q 733 1154 696 1072 q 868 1318 772 1238 l 850 1339 q 714 1307 783 1307 q 560 1329 647 1307 q 443 1347 492 1347 q 353 1331 394 1347 q 281 1287 313 1315 q 230 1218 250 1258 q 204 1128 210 1178 l 228 1124 q 283 1201 253 1179 q 365 1224 313 1224 q 385 1222 372 1224 q 417 1217 397 1219 l 489 1204 q 533 1200 507 1200 q 714 1246 599 1200 q 565 1044 608 1142 q 533 935 543 996 q 521 803 522 875 q 465 810 493 810 q 243 653 329 810 l 261 640 q 294 668 279 657 q 325 685 310 679 q 357 694 340 692 q 396 697 374 697 q 472 676 438 697 q 529 617 506 656 q 566 524 553 578 q 579 407 579 471 q 572 328 579 360 q 547 276 564 296 q 499 247 529 256 q 426 236 469 238 q 207 176 282 231 q 97 -6 138 125 m 768 1779 l 486 1485 l 528 1464 l 682 1618 l 969 1464 l 1094 1590 l 768 1779 z "},"Ï":{"ha":1174,"x_min":97,"x_max":1156,"o":"m 97 -6 l 122 -15 q 269 90 182 90 q 457 42 324 90 q 700 -18 618 -18 q 951 97 857 -18 q 1046 408 1046 213 q 1035 571 1046 471 q 1006 810 1025 671 l 1003 833 q 983 992 989 926 q 976 1093 976 1057 q 1010 1222 976 1178 q 1125 1292 1043 1267 q 1154 1300 1143 1296 l 1135 1333 q 821 897 821 1292 q 829 788 821 861 q 853 600 838 714 q 879 384 871 474 q 888 236 888 294 q 739 47 888 47 q 665 63 699 47 q 640 81 654 69 q 606 111 625 93 q 497 199 544 167 q 685 261 632 211 q 739 426 739 311 q 738 485 739 458 q 733 532 736 513 l 715 679 q 701 826 706 760 q 696 946 696 893 q 733 1154 696 1072 q 868 1318 772 1238 l 850 1339 q 714 1307 783 1307 q 560 1329 647 1307 q 443 1347 492 1347 q 353 1331 394 1347 q 281 1287 313 1315 q 230 1218 250 1258 q 204 1128 210 1178 l 228 1124 q 283 1201 253 1179 q 365 1224 313 1224 q 385 1222 372 1224 q 417 1217 397 1219 l 489 1204 q 533 1200 507 1200 q 714 1246 599 1200 q 565 1044 608 1142 q 533 935 543 996 q 521 803 522 875 q 465 810 493 810 q 243 653 329 810 l 261 640 q 294 668 279 657 q 325 685 310 679 q 357 694 340 692 q 396 697 374 697 q 472 676 438 697 q 529 617 506 656 q 566 524 553 578 q 579 407 579 471 q 572 328 579 360 q 547 276 564 296 q 499 247 529 256 q 426 236 469 238 q 207 176 282 231 q 97 -6 138 125 m 667 1721 l 543 1597 l 667 1474 l 792 1597 l 667 1721 m 1036 1721 l 910 1597 l 1036 1474 l 1156 1597 l 1036 1721 z "},"Ñ":{"ha":1822,"x_min":96,"x_max":1825,"o":"m 1661 -19 l 1825 265 l 1779 281 l 1714 174 q 1657 178 1683 176 q 1607 181 1631 181 q 1374 147 1474 181 q 1394 176 1388 169 l 1531 365 q 1726 844 1726 632 q 1599 1157 1726 1025 q 1246 1342 1472 1289 l 653 1050 l 653 863 q 489 911 549 911 q 318 824 386 911 l 339 801 q 446 832 394 832 q 653 603 629 832 q 488 672 567 672 q 318 588 394 672 l 339 561 q 446 588 390 588 q 672 394 625 588 q 542 433 600 433 q 386 340 454 433 l 411 315 q 522 356 472 356 q 649 299 592 356 q 706 168 706 242 q 582 35 706 35 q 549 40 571 35 l 489 51 q 351 69 399 69 q 96 -89 200 69 l 121 -112 q 281 -65 203 -65 q 399 -87 326 -65 q 600 -128 526 -128 q 876 -15 781 -128 q 972 311 972 97 l 972 499 q 1239 575 1090 575 q 1486 490 1350 575 q 1481 476 1483 482 q 1476 468 1478 471 q 1446 403 1464 440 q 1404 322 1428 367 q 1367 256 1385 288 q 1331 196 1349 225 q 1172 -121 1206 -24 l 1217 -136 q 1476 24 1297 24 q 1661 -19 1565 24 m 1225 619 q 972 551 1114 619 l 972 796 q 1232 725 1111 725 q 1540 828 1385 725 q 1545 797 1543 813 q 1547 767 1547 782 q 1500 532 1547 660 q 1225 619 1372 619 m 1235 771 q 972 853 1103 771 l 972 1135 q 1135 1156 1081 1156 q 1378 1079 1271 1156 q 1531 875 1488 1004 q 1448 826 1486 847 q 1378 794 1410 806 q 1235 771 1311 771 m 842 1082 q 897 1106 874 1097 q 933 1121 919 1115 l 933 403 q 890 94 933 172 q 715 3 846 15 q 817 117 792 50 q 842 339 842 183 l 842 1082 m 1078 1775 l 839 1575 l 881 1544 l 978 1622 l 1238 1471 l 1513 1711 l 1471 1744 l 1339 1628 l 1078 1775 z "},"Ò":{"ha":1493,"x_min":96,"x_max":1444,"o":"m 824 1342 l 183 956 q 96 565 96 749 q 258 150 96 318 q 661 -18 421 -18 q 964 75 804 -18 q 1268 332 1129 169 q 1444 746 1444 535 q 1274 1136 1444 971 q 824 1342 1104 1300 m 247 675 q 438 1058 247 918 l 438 542 q 435 469 438 499 q 431 422 433 439 q 372 322 418 365 q 247 675 247 497 m 622 1172 q 675 1170 650 1172 q 724 1165 700 1168 l 724 129 q 403 289 533 153 q 585 465 549 403 q 622 663 622 529 l 622 1172 m 990 801 q 767 893 876 801 l 767 1163 q 911 1128 843 1151 q 1037 1069 979 1104 q 1139 990 1094 1035 q 1213 893 1183 944 q 990 801 1110 801 m 982 636 q 767 550 865 636 l 767 849 q 997 761 876 761 q 1229 849 1110 761 q 1257 692 1257 763 q 1232 524 1257 628 q 982 636 1108 636 m 783 129 l 767 129 l 767 490 q 985 594 856 594 q 1217 478 1121 594 q 1042 226 1164 324 q 783 129 919 129 m 539 1528 l 849 1465 l 640 1701 l 469 1701 l 539 1528 z "},"Ó":{"ha":1493,"x_min":96,"x_max":1444,"o":"m 824 1342 l 183 956 q 96 565 96 749 q 258 150 96 318 q 661 -18 421 -18 q 964 75 804 -18 q 1268 332 1129 169 q 1444 746 1444 535 q 1274 1136 1444 971 q 824 1342 1104 1300 m 247 675 q 438 1058 247 918 l 438 542 q 435 469 438 499 q 431 422 433 439 q 372 322 418 365 q 247 675 247 497 m 622 1172 q 675 1170 650 1172 q 724 1165 700 1168 l 724 129 q 403 289 533 153 q 585 465 549 403 q 622 663 622 529 l 622 1172 m 990 801 q 767 893 876 801 l 767 1163 q 911 1128 843 1151 q 1037 1069 979 1104 q 1139 990 1094 1035 q 1213 893 1183 944 q 990 801 1110 801 m 982 636 q 767 550 865 636 l 767 849 q 997 761 876 761 q 1229 849 1110 761 q 1257 692 1257 763 q 1232 524 1257 628 q 982 636 1108 636 m 783 129 l 767 129 l 767 490 q 985 594 856 594 q 1217 478 1121 594 q 1042 226 1164 324 q 783 129 919 129 m 951 1700 l 742 1464 l 1051 1526 l 1121 1700 l 951 1700 z "},"Ô":{"ha":1493,"x_min":96,"x_max":1444,"o":"m 824 1342 l 183 956 q 96 565 96 749 q 258 150 96 318 q 661 -18 421 -18 q 964 75 804 -18 q 1268 332 1129 169 q 1444 746 1444 535 q 1274 1136 1444 971 q 824 1342 1104 1300 m 247 675 q 438 1058 247 918 l 438 542 q 435 469 438 499 q 431 422 433 439 q 372 322 418 365 q 247 675 247 497 m 622 1172 q 675 1170 650 1172 q 724 1165 700 1168 l 724 129 q 403 289 533 153 q 585 465 549 403 q 622 663 622 529 l 622 1172 m 990 801 q 767 893 876 801 l 767 1163 q 911 1128 843 1151 q 1037 1069 979 1104 q 1139 990 1094 1035 q 1213 893 1183 944 q 990 801 1110 801 m 982 636 q 767 550 865 636 l 767 849 q 997 761 876 761 q 1229 849 1110 761 q 1257 692 1257 763 q 1232 524 1257 628 q 982 636 1108 636 m 783 129 l 767 129 l 767 490 q 985 594 856 594 q 1217 478 1121 594 q 1042 226 1164 324 q 783 129 919 129 m 768 1779 l 486 1485 l 528 1464 l 682 1618 l 969 1464 l 1094 1590 l 768 1779 z "},"Õ":{"ha":1493,"x_min":96,"x_max":1444,"o":"m 824 1342 l 183 956 q 96 565 96 749 q 258 150 96 318 q 661 -18 421 -18 q 964 75 804 -18 q 1268 332 1129 169 q 1444 746 1444 535 q 1274 1136 1444 971 q 824 1342 1104 1300 m 247 675 q 438 1058 247 918 l 438 542 q 435 469 438 499 q 431 422 433 439 q 372 322 418 365 q 247 675 247 497 m 622 1172 q 675 1170 650 1172 q 724 1165 700 1168 l 724 129 q 403 289 533 153 q 585 465 549 403 q 622 663 622 529 l 622 1172 m 990 801 q 767 893 876 801 l 767 1163 q 911 1128 843 1151 q 1037 1069 979 1104 q 1139 990 1094 1035 q 1213 893 1183 944 q 990 801 1110 801 m 982 636 q 767 550 865 636 l 767 849 q 997 761 876 761 q 1229 849 1110 761 q 1257 692 1257 763 q 1232 524 1257 628 q 982 636 1108 636 m 783 129 l 767 129 l 767 490 q 985 594 856 594 q 1217 478 1121 594 q 1042 226 1164 324 q 783 129 919 129 m 646 1775 l 407 1575 l 447 1544 l 547 1622 l 806 1471 l 1081 1711 l 1039 1744 l 907 1628 l 646 1775 z "},"Ö":{"ha":1493,"x_min":96,"x_max":1444,"o":"m 824 1342 l 183 956 q 96 565 96 749 q 258 150 96 318 q 661 -18 421 -18 q 964 75 804 -18 q 1268 332 1129 169 q 1444 746 1444 535 q 1274 1136 1444 971 q 824 1342 1104 1300 m 247 675 q 438 1058 247 918 l 438 542 q 435 469 438 499 q 431 422 433 439 q 372 322 418 365 q 247 675 247 497 m 622 1172 q 675 1170 650 1172 q 724 1165 700 1168 l 724 129 q 403 289 533 153 q 585 465 549 403 q 622 663 622 529 l 622 1172 m 990 801 q 767 893 876 801 l 767 1163 q 911 1128 843 1151 q 1037 1069 979 1104 q 1139 990 1094 1035 q 1213 893 1183 944 q 990 801 1110 801 m 982 636 q 767 550 865 636 l 767 849 q 997 761 876 761 q 1229 849 1110 761 q 1257 692 1257 763 q 1232 524 1257 628 q 982 636 1108 636 m 783 129 l 767 129 l 767 490 q 985 594 856 594 q 1217 478 1121 594 q 1042 226 1164 324 q 783 129 919 129 m 589 1714 l 465 1590 l 589 1467 l 714 1590 l 589 1714 m 956 1714 l 831 1590 l 956 1467 l 1078 1590 l 956 1714 z "},"×":{"ha":994,"x_min":151,"x_max":875,"o":"m 875 751 l 804 822 l 514 532 l 224 822 l 151 753 l 443 463 l 151 172 l 224 101 l 514 392 l 804 101 l 875 169 l 585 461 l 875 751 z "},"Ø":{"ha":1493,"x_min":96,"x_max":1444,"o":"m 783 129 l 767 129 l 767 490 q 985 594 856 594 q 1217 478 1121 594 q 1042 226 1164 324 q 783 129 919 129 m 982 636 q 767 550 865 636 l 767 849 q 997 761 876 761 q 1229 849 1110 761 q 1257 692 1257 763 q 1232 524 1257 628 q 982 636 1108 636 m 990 801 q 767 893 876 801 l 767 1163 q 911 1128 843 1151 q 1037 1069 979 1104 q 1139 990 1094 1035 q 1213 893 1183 944 q 990 801 1110 801 m 622 1172 q 675 1170 650 1172 q 724 1165 700 1168 l 724 129 q 403 289 533 153 q 585 465 549 403 q 622 663 622 529 l 622 1172 m 247 675 q 438 1058 247 918 l 438 542 q 435 469 438 499 q 431 422 433 439 q 372 322 418 365 q 247 675 247 497 m 347 75 q 661 -18 482 -18 q 964 75 804 -18 q 1268 332 1129 169 q 1444 746 1444 535 q 1246 1163 1444 993 l 1369 1313 l 1285 1357 l 1165 1217 q 824 1342 1021 1310 l 183 956 q 96 565 96 749 q 274 133 96 304 l 149 -22 l 233 -65 q 347 75 350 75 z "},"Ù":{"ha":1551,"x_min":96,"x_max":1540,"o":"m 1343 -42 l 1540 122 l 1517 158 q 1465 142 1485 142 q 1403 265 1403 142 l 1403 910 q 1417 1108 1403 1065 q 1504 1240 1431 1154 q 1513 1251 1507 1246 q 1525 1264 1518 1257 l 1488 1292 l 1396 1194 l 1208 1333 l 990 1104 l 1019 1074 l 1124 1178 l 1208 1110 l 1208 832 q 1068 793 1149 793 q 900 854 978 793 l 900 1363 l 872 1363 q 685 1292 818 1292 q 517 1329 622 1292 q 339 1374 392 1374 q 159 1285 222 1374 q 96 1038 96 1197 q 96 1014 96 1026 q 97 986 96 1001 l 139 986 q 138 999 138 988 q 303 1206 138 1206 q 346 1204 326 1206 q 382 1200 365 1203 q 429 1194 410 1197 q 458 1190 449 1192 q 481 1188 468 1189 q 510 1188 494 1188 q 521 1189 500 1188 q 592 1193 542 1190 q 613 1194 606 1194 q 624 1194 621 1194 l 589 1172 q 395 1028 476 1101 q 263 879 314 956 q 165 540 165 732 q 311 138 165 293 q 689 -18 457 -18 q 938 31 821 -18 q 1206 210 1050 81 q 1236 56 1208 107 q 1343 -42 1267 1 m 1208 282 q 900 136 1051 154 l 900 533 q 1046 579 971 579 q 1208 531 1118 579 l 1208 282 m 1047 622 q 900 588 978 622 l 900 800 q 1067 750 981 750 q 1208 783 1142 750 l 1208 579 q 1047 622 1124 622 m 776 969 q 779 1085 776 1040 q 788 1151 782 1129 q 856 1256 800 1196 l 856 129 q 829 128 843 128 q 803 128 817 128 q 532 210 647 128 q 660 302 607 254 q 746 399 714 350 q 776 551 776 442 l 776 969 m 585 510 q 580 416 585 456 q 564 346 575 376 q 535 292 553 315 q 490 250 517 269 q 353 622 353 396 q 767 1224 353 1014 q 742 1194 747 1203 l 669 1103 q 601 992 618 1039 q 585 861 585 943 l 585 510 m 735 1528 l 1046 1465 l 838 1701 l 665 1701 l 735 1528 z "},"Ú":{"ha":1551,"x_min":96,"x_max":1540,"o":"m 1343 -42 l 1540 122 l 1517 158 q 1465 142 1485 142 q 1403 265 1403 142 l 1403 910 q 1417 1108 1403 1065 q 1504 1240 1431 1154 q 1513 1251 1507 1246 q 1525 1264 1518 1257 l 1488 1292 l 1396 1194 l 1208 1333 l 990 1104 l 1019 1074 l 1124 1178 l 1208 1110 l 1208 832 q 1068 793 1149 793 q 900 854 978 793 l 900 1363 l 872 1363 q 685 1292 818 1292 q 517 1329 622 1292 q 339 1374 392 1374 q 159 1285 222 1374 q 96 1038 96 1197 q 96 1014 96 1026 q 97 986 96 1001 l 139 986 q 138 999 138 988 q 303 1206 138 1206 q 346 1204 326 1206 q 382 1200 365 1203 q 429 1194 410 1197 q 458 1190 449 1192 q 481 1188 468 1189 q 510 1188 494 1188 q 521 1189 500 1188 q 592 1193 542 1190 q 613 1194 606 1194 q 624 1194 621 1194 l 589 1172 q 395 1028 476 1101 q 263 879 314 956 q 165 540 165 732 q 311 138 165 293 q 689 -18 457 -18 q 938 31 821 -18 q 1206 210 1050 81 q 1236 56 1208 107 q 1343 -42 1267 1 m 1208 282 q 900 136 1051 154 l 900 533 q 1046 579 971 579 q 1208 531 1118 579 l 1208 282 m 1047 622 q 900 588 978 622 l 900 800 q 1067 750 981 750 q 1208 783 1142 750 l 1208 579 q 1047 622 1124 622 m 776 969 q 779 1085 776 1040 q 788 1151 782 1129 q 856 1256 800 1196 l 856 129 q 829 128 843 128 q 803 128 817 128 q 532 210 647 128 q 660 302 607 254 q 746 399 714 350 q 776 551 776 442 l 776 969 m 585 510 q 580 416 585 456 q 564 346 575 376 q 535 292 553 315 q 490 250 517 269 q 353 622 353 396 q 767 1224 353 1014 q 742 1194 747 1203 l 669 1103 q 601 992 618 1039 q 585 861 585 943 l 585 510 m 1186 1700 l 978 1464 l 1288 1526 l 1357 1700 l 1186 1700 z "},"Û":{"ha":1551,"x_min":96,"x_max":1540,"o":"m 1343 -42 l 1540 122 l 1517 158 q 1465 142 1485 142 q 1403 265 1403 142 l 1403 910 q 1417 1108 1403 1065 q 1504 1240 1431 1154 q 1513 1251 1507 1246 q 1525 1264 1518 1257 l 1488 1292 l 1396 1194 l 1208 1333 l 990 1104 l 1019 1074 l 1124 1178 l 1208 1110 l 1208 832 q 1068 793 1149 793 q 900 854 978 793 l 900 1363 l 872 1363 q 685 1292 818 1292 q 517 1329 622 1292 q 339 1374 392 1374 q 159 1285 222 1374 q 96 1038 96 1197 q 96 1014 96 1026 q 97 986 96 1001 l 139 986 q 138 999 138 988 q 303 1206 138 1206 q 346 1204 326 1206 q 382 1200 365 1203 q 429 1194 410 1197 q 458 1190 449 1192 q 481 1188 468 1189 q 510 1188 494 1188 q 521 1189 500 1188 q 592 1193 542 1190 q 613 1194 606 1194 q 624 1194 621 1194 l 589 1172 q 395 1028 476 1101 q 263 879 314 956 q 165 540 165 732 q 311 138 165 293 q 689 -18 457 -18 q 938 31 821 -18 q 1206 210 1050 81 q 1236 56 1208 107 q 1343 -42 1267 1 m 1208 282 q 900 136 1051 154 l 900 533 q 1046 579 971 579 q 1208 531 1118 579 l 1208 282 m 1047 622 q 900 588 978 622 l 900 800 q 1067 750 981 750 q 1208 783 1142 750 l 1208 579 q 1047 622 1124 622 m 776 969 q 779 1085 776 1040 q 788 1151 782 1129 q 856 1256 800 1196 l 856 129 q 829 128 843 128 q 803 128 817 128 q 532 210 647 128 q 660 302 607 254 q 746 399 714 350 q 776 551 776 442 l 776 969 m 585 510 q 580 416 585 456 q 564 346 575 376 q 535 292 553 315 q 490 250 517 269 q 353 622 353 396 q 767 1224 353 1014 q 742 1194 747 1203 l 669 1103 q 601 992 618 1039 q 585 861 585 943 l 585 510 m 951 1776 l 667 1483 l 710 1461 l 864 1617 l 1153 1461 l 1278 1589 l 951 1776 z "},"Ü":{"ha":1551,"x_min":96,"x_max":1540,"o":"m 1343 -42 l 1540 122 l 1517 158 q 1465 142 1485 142 q 1403 265 1403 142 l 1403 910 q 1417 1108 1403 1065 q 1504 1240 1431 1154 q 1513 1251 1507 1246 q 1525 1264 1518 1257 l 1488 1292 l 1396 1194 l 1208 1333 l 990 1104 l 1019 1074 l 1124 1178 l 1208 1110 l 1208 832 q 1068 793 1149 793 q 900 854 978 793 l 900 1363 l 872 1363 q 685 1292 818 1292 q 517 1329 622 1292 q 339 1374 392 1374 q 159 1285 222 1374 q 96 1038 96 1197 q 96 1014 96 1026 q 97 986 96 1001 l 139 986 q 138 999 138 988 q 303 1206 138 1206 q 346 1204 326 1206 q 382 1200 365 1203 q 429 1194 410 1197 q 458 1190 449 1192 q 481 1188 468 1189 q 510 1188 494 1188 q 521 1189 500 1188 q 592 1193 542 1190 q 613 1194 606 1194 q 624 1194 621 1194 l 589 1172 q 395 1028 476 1101 q 263 879 314 956 q 165 540 165 732 q 311 138 165 293 q 689 -18 457 -18 q 938 31 821 -18 q 1206 210 1050 81 q 1236 56 1208 107 q 1343 -42 1267 1 m 1208 282 q 900 136 1051 154 l 900 533 q 1046 579 971 579 q 1208 531 1118 579 l 1208 282 m 1047 622 q 900 588 978 622 l 900 800 q 1067 750 981 750 q 1208 783 1142 750 l 1208 579 q 1047 622 1124 622 m 776 969 q 779 1085 776 1040 q 788 1151 782 1129 q 856 1256 800 1196 l 856 129 q 829 128 843 128 q 803 128 817 128 q 532 210 647 128 q 660 302 607 254 q 746 399 714 350 q 776 551 776 442 l 776 969 m 585 510 q 580 416 585 456 q 564 346 575 376 q 535 292 553 315 q 490 250 517 269 q 353 622 353 396 q 767 1224 353 1014 q 742 1194 747 1203 l 669 1103 q 601 992 618 1039 q 585 861 585 943 l 585 510 m 767 1714 l 643 1590 l 767 1467 l 890 1590 l 767 1714 m 1133 1714 l 1007 1590 l 1133 1467 l 1256 1590 l 1133 1714 z "},"Ý":{"ha":1421,"x_min":96,"x_max":1381,"o":"m 139 1267 l 158 1233 q 233 1256 201 1256 q 372 1183 331 1256 q 414 944 414 1111 l 414 874 q 250 935 317 935 q 143 906 199 935 l 149 874 q 163 875 156 875 q 178 875 171 875 q 347 801 281 875 q 414 613 414 728 l 414 574 q 217 647 315 647 q 149 638 183 647 l 149 613 q 259 583 210 608 q 342 517 308 558 q 395 417 376 475 q 414 292 414 360 l 414 257 q 186 185 275 257 q 96 1 96 111 q 182 -190 96 -112 q 393 -269 267 -269 q 754 -142 519 -269 q 906 -83 864 -83 q 949 -111 949 -83 q 942 -131 949 -112 q 914 -200 914 -169 q 938 -263 914 -237 q 997 -289 961 -289 q 1086 -193 1086 -289 q 1014 -68 1086 -119 q 839 -18 943 -18 q 678 -44 765 -18 q 622 -65 660 -51 q 522 -101 583 -79 q 325 -150 389 -150 q 255 -137 288 -150 q 199 -101 222 -124 q 161 -49 175 -79 q 147 18 147 -18 q 231 163 147 111 q 465 215 314 215 q 613 211 514 215 q 760 207 710 207 q 1228 353 1076 207 q 1381 806 1381 499 q 1272 1147 1381 1014 q 997 1282 1167 1282 q 624 1142 863 1282 q 600 1125 608 1128 q 340 1342 558 1342 q 139 1267 228 1342 m 688 257 l 600 257 l 600 1064 q 688 1118 660 1103 l 688 257 m 758 257 l 731 257 l 731 536 q 938 617 828 617 q 1163 524 1056 617 q 758 257 1075 257 m 936 663 q 731 589 832 663 l 731 858 q 946 779 828 779 q 1058 799 1008 779 q 1111 827 1082 810 q 1172 871 1140 844 q 1186 728 1186 807 q 1172 574 1186 638 q 936 663 1058 663 m 942 821 q 888 826 913 821 q 838 842 863 831 q 787 871 813 853 q 731 917 761 889 l 731 1142 q 872 1178 814 1178 q 1051 1106 974 1178 q 1160 917 1133 1032 q 942 821 1065 821 m 951 1700 l 742 1464 l 1051 1526 l 1121 1700 l 951 1700 z "},"ß":{"ha":932,"x_min":97,"x_max":874,"o":"m 256 -24 l 422 107 l 350 186 l 350 1139 q 494 1012 424 1071 q 635 903 564 953 l 365 594 l 386 574 q 518 619 469 619 q 619 576 582 619 q 657 461 657 533 q 553 228 657 346 q 443 89 471 133 q 418 0 418 44 q 465 -106 418 -62 q 578 -150 514 -150 q 640 -106 640 -150 q 610 -79 640 -79 q 582 -85 599 -79 q 549 -94 558 -94 q 493 -68 517 -94 q 469 -6 469 -42 q 657 218 469 76 q 832 374 793 319 q 874 508 874 429 q 803 692 874 618 q 631 767 733 767 q 561 760 596 767 l 803 1036 l 789 1056 q 765 1050 774 1050 q 624 1133 725 1050 l 422 1299 q 411 1288 415 1292 q 407 1285 407 1285 l 278 1193 l 176 1121 q 170 1117 175 1119 q 158 1108 165 1114 l 158 315 q 158 249 158 275 q 156 211 157 222 q 97 133 143 154 l 97 93 q 256 -24 182 51 z "},"à":{"ha":879,"x_min":121,"x_max":858,"o":"m 650 -24 l 858 139 l 839 165 q 783 139 803 139 q 732 194 742 139 q 728 282 728 215 l 728 624 q 740 792 728 743 q 800 914 753 842 l 772 932 q 683 888 731 888 q 418 975 586 888 q 186 892 311 892 q 160 892 172 892 q 136 893 147 892 l 306 592 l 282 565 q 121 233 121 379 q 272 -24 121 90 l 533 186 q 547 121 539 150 q 565 72 554 92 q 650 -24 589 32 m 325 561 l 533 474 l 533 233 l 407 132 q 285 351 285 236 q 325 561 285 457 m 199 858 l 533 746 l 533 513 l 346 593 l 199 858 m 279 1154 l 589 1092 l 382 1328 l 210 1328 l 279 1154 z "},"á":{"ha":879,"x_min":121,"x_max":858,"o":"m 650 -24 l 858 139 l 839 165 q 783 139 803 139 q 732 194 742 139 q 728 282 728 215 l 728 624 q 740 792 728 743 q 800 914 753 842 l 772 932 q 683 888 731 888 q 418 975 586 888 q 186 892 311 892 q 160 892 172 892 q 136 893 147 892 l 306 592 l 282 565 q 121 233 121 379 q 272 -24 121 90 l 533 186 q 547 121 539 150 q 565 72 554 92 q 650 -24 589 32 m 325 561 l 533 474 l 533 233 l 407 132 q 285 351 285 236 q 325 561 285 457 m 199 858 l 533 746 l 533 513 l 346 593 l 199 858 m 617 1322 l 408 1089 l 718 1151 l 788 1322 l 617 1322 z "},"â":{"ha":879,"x_min":121,"x_max":858,"o":"m 650 -24 l 858 139 l 839 165 q 783 139 803 139 q 732 194 742 139 q 728 282 728 215 l 728 624 q 740 792 728 743 q 800 914 753 842 l 772 932 q 683 888 731 888 q 418 975 586 888 q 186 892 311 892 q 160 892 172 892 q 136 893 147 892 l 306 592 l 282 565 q 121 233 121 379 q 272 -24 121 90 l 533 186 q 547 121 539 150 q 565 72 554 92 q 650 -24 589 32 m 325 561 l 533 474 l 533 233 l 407 132 q 285 351 285 236 q 325 561 285 457 m 199 858 l 533 746 l 533 513 l 346 593 l 199 858 m 489 1410 l 207 1115 l 250 1093 l 403 1249 l 692 1093 l 818 1222 l 489 1410 z "},"ã":{"ha":879,"x_min":121,"x_max":864,"o":"m 650 -24 l 858 139 l 839 165 q 783 139 803 139 q 732 194 742 139 q 728 282 728 215 l 728 624 q 740 792 728 743 q 800 914 753 842 l 772 932 q 683 888 731 888 q 418 975 586 888 q 186 892 311 892 q 160 892 172 892 q 136 893 147 892 l 306 592 l 282 565 q 121 233 121 379 q 272 -24 121 90 l 533 186 q 547 121 539 150 q 565 72 554 92 q 650 -24 589 32 m 325 561 l 533 474 l 533 233 l 407 132 q 285 351 285 236 q 325 561 285 457 m 199 858 l 533 746 l 533 513 l 346 593 l 199 858 m 429 1396 l 190 1196 l 231 1164 l 331 1243 l 589 1092 l 864 1331 l 822 1364 l 692 1249 l 429 1396 z "},"ä":{"ha":879,"x_min":121,"x_max":858,"o":"m 650 -24 l 858 139 l 839 165 q 783 139 803 139 q 732 194 742 139 q 728 282 728 215 l 728 624 q 740 792 728 743 q 800 914 753 842 l 772 932 q 683 888 731 888 q 418 975 586 888 q 186 892 311 892 q 160 892 172 892 q 136 893 147 892 l 306 592 l 282 565 q 121 233 121 379 q 272 -24 121 90 l 533 186 q 547 121 539 150 q 565 72 554 92 q 650 -24 589 32 m 325 561 l 533 474 l 533 233 l 407 132 q 285 351 285 236 q 325 561 285 457 m 199 858 l 533 746 l 533 513 l 346 593 l 199 858 m 294 1342 l 169 1217 l 294 1093 l 418 1217 l 294 1342 m 663 1342 l 536 1217 l 663 1093 l 783 1217 l 663 1342 z "},"å":{"ha":879,"x_min":121,"x_max":858,"o":"m 650 -24 l 858 139 l 839 165 q 783 139 803 139 q 732 194 742 139 q 728 282 728 215 l 728 624 q 740 792 728 743 q 800 914 753 842 l 772 932 q 683 888 731 888 q 418 975 586 888 q 186 892 311 892 q 160 892 172 892 q 136 893 147 892 l 306 592 l 282 565 q 121 233 121 379 q 272 -24 121 90 l 533 186 q 547 121 539 150 q 565 72 554 92 q 650 -24 589 32 m 325 561 l 533 474 l 533 233 l 407 132 q 285 351 285 236 q 325 561 285 457 m 199 858 l 533 746 l 533 513 l 346 593 l 199 858 m 308 1301 q 490 1099 308 1160 q 626 1196 578 1135 q 675 1328 675 1257 q 490 1536 675 1478 q 308 1301 308 1442 m 600 1282 q 551 1182 600 1222 q 428 1247 472 1204 q 383 1342 383 1290 q 428 1451 383 1404 q 553 1390 507 1435 q 600 1282 600 1344 z "},"æ":{"ha":1103,"x_min":121,"x_max":1076,"o":"m 281 -24 l 528 85 q 771 -24 667 46 l 1056 175 l 1038 200 l 894 101 q 726 190 811 160 l 726 375 l 1076 675 l 831 982 l 664 885 q 411 975 544 897 q 204 883 308 883 q 136 890 171 883 l 303 585 q 121 225 121 386 q 281 -24 121 86 m 196 849 l 532 742 l 532 433 l 343 589 l 196 849 m 331 557 l 532 382 l 532 136 l 426 90 q 319 212 360 142 q 279 350 279 282 q 331 557 279 453 m 917 604 l 726 438 l 726 849 l 917 604 z "},"ç":{"ha":628,"x_min":82,"x_max":628,"o":"m 386 -260 q 297 -112 386 -197 l 628 157 l 606 183 l 522 115 l 353 193 l 353 793 l 517 700 l 614 846 l 385 975 q 82 781 236 828 l 82 757 l 101 757 q 149 738 139 757 q 158 657 158 719 l 158 257 q 151 174 158 201 q 104 107 140 138 l 104 85 q 129 82 118 82 q 206 66 174 75 q 264 47 239 57 q 308 28 289 38 q 343 10 326 18 q 365 0 361 4 l 149 -174 q 272 -331 272 -236 q 236 -433 272 -369 l 247 -443 q 386 -260 386 -375 z "},"è":{"ha":733,"x_min":85,"x_max":708,"o":"m 396 -24 l 683 168 l 664 196 l 522 101 q 438 146 481 125 q 351 186 396 167 l 351 367 l 708 665 l 469 975 q 290 876 381 922 q 107 789 200 829 q 95 784 100 786 q 85 779 90 782 l 94 758 l 101 758 q 149 740 139 758 q 158 647 158 722 l 158 297 q 151 196 158 228 q 94 121 139 146 l 94 101 q 396 -24 233 79 m 551 600 l 351 433 l 351 854 l 551 600 m 181 1154 l 490 1092 l 282 1328 l 113 1328 l 181 1154 z "},"é":{"ha":733,"x_min":85,"x_max":708,"o":"m 396 -24 l 683 168 l 664 196 l 522 101 q 438 146 481 125 q 351 186 396 167 l 351 367 l 708 665 l 469 975 q 290 876 381 922 q 107 789 200 829 q 95 784 100 786 q 85 779 90 782 l 94 758 l 101 758 q 149 740 139 758 q 158 647 158 722 l 158 297 q 151 196 158 228 q 94 121 139 146 l 94 101 q 396 -24 233 79 m 551 600 l 351 433 l 351 854 l 551 600 m 479 1322 l 271 1089 l 582 1151 l 650 1322 l 479 1322 z "},"ê":{"ha":733,"x_min":85,"x_max":718,"o":"m 396 -24 l 683 168 l 664 196 l 522 101 q 438 146 481 125 q 351 186 396 167 l 351 367 l 708 665 l 469 975 q 290 876 381 922 q 107 789 200 829 q 95 784 100 786 q 85 779 90 782 l 94 758 l 101 758 q 149 740 139 758 q 158 647 158 722 l 158 297 q 151 196 158 228 q 94 121 139 146 l 94 101 q 396 -24 233 79 m 551 600 l 351 433 l 351 854 l 551 600 m 392 1410 l 107 1115 l 151 1093 l 304 1249 l 593 1093 l 718 1222 l 392 1410 z "},"ë":{"ha":733,"x_min":85,"x_max":725,"o":"m 396 -24 l 683 168 l 664 196 l 522 101 q 438 146 481 125 q 351 186 396 167 l 351 367 l 708 665 l 469 975 q 290 876 381 922 q 107 789 200 829 q 95 784 100 786 q 85 779 90 782 l 94 758 l 101 758 q 149 740 139 758 q 158 647 158 722 l 158 297 q 151 196 158 228 q 94 121 139 146 l 94 101 q 396 -24 233 79 m 551 600 l 351 433 l 351 854 l 551 600 m 236 1339 l 113 1215 l 236 1092 l 360 1215 l 236 1339 m 603 1339 l 478 1215 l 603 1092 l 725 1215 l 603 1339 z "},"ì":{"ha":489,"x_min":-62,"x_max":489,"o":"m 285 -24 l 489 136 l 465 168 l 407 121 l 351 168 l 351 778 l 418 839 l 253 975 l 90 844 l 158 786 l 158 303 q 154 215 158 233 q 96 154 142 168 l 96 136 q 285 -24 176 86 m 3 1154 l 314 1092 l 106 1328 l -62 1328 l 3 1154 z "},"í":{"ha":489,"x_min":90,"x_max":592,"o":"m 285 -24 l 489 136 l 465 168 l 407 121 l 351 168 l 351 778 l 418 839 l 253 975 l 90 844 l 158 786 l 158 303 q 154 215 158 233 q 96 154 142 168 l 96 136 q 285 -24 176 86 m 419 1322 l 211 1089 l 522 1151 l 592 1322 l 419 1322 z "},"î":{"ha":489,"x_min":-8,"x_max":601,"o":"m 285 -24 l 489 136 l 465 168 l 407 121 l 351 168 l 351 778 l 418 839 l 253 975 l 90 844 l 158 786 l 158 303 q 154 215 158 233 q 96 154 142 168 l 96 136 q 285 -24 176 86 m 272 1410 l -8 1115 l 33 1093 l 186 1249 l 475 1093 l 601 1222 l 272 1410 z "},"ï":{"ha":489,"x_min":-6,"x_max":606,"o":"m 285 -24 l 489 136 l 465 168 l 407 121 l 351 168 l 351 778 l 418 839 l 253 975 l 90 844 l 158 786 l 158 303 q 154 215 158 233 q 96 154 142 168 l 96 136 q 285 -24 176 86 m 117 1339 l -6 1215 l 117 1092 l 242 1215 l 117 1339 m 486 1339 l 360 1215 l 486 1092 l 606 1215 l 486 1339 z "},"ñ":{"ha":897,"x_min":44,"x_max":892,"o":"m 239 975 l 44 828 l 67 797 q 115 818 104 818 q 138 813 129 818 q 151 795 146 808 q 157 757 156 782 q 158 693 158 732 l 158 189 l 82 117 l 250 -24 l 419 113 l 353 185 l 353 726 l 489 839 l 565 760 l 565 265 q 581 97 565 140 q 664 -6 596 54 q 672 -13 667 -8 q 685 -24 678 -18 l 892 142 l 868 181 q 859 174 863 176 q 853 168 856 171 q 807 146 821 146 q 761 210 769 146 q 760 239 760 217 q 760 300 760 263 l 760 635 q 778 782 760 738 q 861 890 796 829 l 832 921 l 740 832 l 596 975 l 353 772 q 351 797 351 779 q 329 889 351 854 q 260 958 313 914 q 239 975 247 968 m 411 1396 l 169 1196 l 211 1164 l 311 1243 l 569 1092 l 844 1331 l 803 1364 l 672 1249 l 411 1396 z "},"ò":{"ha":803,"x_min":64,"x_max":708,"o":"m 708 129 l 708 831 q 547 888 624 853 q 399 975 469 924 q 121 813 279 865 l 121 365 q 117 246 121 268 q 64 147 106 179 l 64 124 q 425 -24 244 110 q 708 129 522 54 m 311 221 l 311 819 l 517 731 l 517 133 l 311 221 m 165 1154 l 475 1092 l 268 1328 l 96 1328 l 165 1154 z "},"ó":{"ha":803,"x_min":64,"x_max":708,"o":"m 708 129 l 708 831 q 547 888 624 853 q 399 975 469 924 q 121 813 279 865 l 121 365 q 117 246 121 268 q 64 147 106 179 l 64 124 q 425 -24 244 110 q 708 129 522 54 m 311 221 l 311 819 l 517 731 l 517 133 l 311 221 m 539 1322 l 331 1089 l 640 1151 l 708 1322 l 539 1322 z "},"ô":{"ha":803,"x_min":64,"x_max":761,"o":"m 708 129 l 708 831 q 547 888 624 853 q 399 975 469 924 q 121 813 279 865 l 121 365 q 117 246 121 268 q 64 147 106 179 l 64 124 q 425 -24 244 110 q 708 129 522 54 m 311 221 l 311 819 l 517 731 l 517 133 l 311 221 m 435 1410 l 151 1115 l 194 1093 l 347 1249 l 636 1093 l 761 1222 l 435 1410 z "},"õ":{"ha":803,"x_min":64,"x_max":786,"o":"m 708 129 l 708 831 q 547 888 624 853 q 399 975 469 924 q 121 813 279 865 l 121 365 q 117 246 121 268 q 64 147 106 179 l 64 124 q 425 -24 244 110 q 708 129 522 54 m 311 221 l 311 819 l 517 731 l 517 133 l 311 221 m 351 1396 l 113 1196 l 154 1164 l 251 1243 l 510 1092 l 786 1331 l 744 1364 l 613 1249 l 351 1396 z "},"ö":{"ha":803,"x_min":64,"x_max":744,"o":"m 708 129 l 708 831 q 547 888 624 853 q 399 975 469 924 q 121 813 279 865 l 121 365 q 117 246 121 268 q 64 147 106 179 l 64 124 q 425 -24 244 110 q 708 129 522 54 m 311 221 l 311 819 l 517 731 l 517 133 l 311 221 m 256 1339 l 132 1215 l 256 1092 l 378 1215 l 256 1339 m 622 1339 l 497 1215 l 622 1092 l 744 1215 l 622 1339 z "},"÷":{"ha":650,"x_min":36,"x_max":617,"o":"m 426 624 q 397 697 426 667 q 325 728 367 728 q 255 697 285 728 q 225 624 225 667 q 255 554 225 583 q 325 525 285 525 q 397 554 367 525 q 426 624 426 583 m 617 329 l 617 465 l 36 465 l 36 329 l 617 329 m 426 168 q 397 239 426 210 q 325 268 367 268 q 255 239 285 268 q 225 168 225 210 q 255 96 225 125 q 325 67 285 67 q 397 96 367 67 q 426 168 426 125 z "},"ø":{"ha":803,"x_min":-8,"x_max":850,"o":"m 792 1007 l 653 846 q 414 963 550 879 q 404 969 408 965 q 396 975 400 972 q 121 813 300 881 l 121 342 q 117 246 121 264 q 76 163 108 194 q -8 8 -8 78 q 10 -47 -8 -25 q 63 -68 29 -68 q 107 -51 89 -68 q 125 -10 125 -33 q 110 36 125 -1 q 96 82 96 69 q 133 114 96 114 q 265 71 171 114 q 422 -24 354 29 q 708 128 518 60 l 708 803 l 850 975 l 792 1007 m 517 688 l 311 449 l 311 819 l 517 731 l 517 688 m 517 133 l 311 221 l 311 346 l 517 585 l 517 133 z "},"ù":{"ha":900,"x_min":53,"x_max":894,"o":"m 256 975 l 53 796 l 79 767 l 117 796 l 158 767 l 158 289 q 150 186 158 208 q 104 151 142 167 l 104 125 q 321 -24 204 81 l 578 211 l 578 190 q 597 75 578 117 q 626 35 607 56 q 675 -7 646 15 q 699 -24 682 -14 l 894 125 l 865 158 q 822 139 838 139 q 769 250 769 139 l 769 771 l 833 831 l 669 975 l 508 831 l 578 771 l 578 261 l 439 136 l 351 207 l 351 771 l 418 831 l 256 975 m 185 1154 l 496 1092 l 288 1328 l 115 1328 l 185 1154 z "},"ú":{"ha":900,"x_min":53,"x_max":894,"o":"m 256 975 l 53 796 l 79 767 l 117 796 l 158 767 l 158 289 q 150 186 158 208 q 104 151 142 167 l 104 125 q 321 -24 204 81 l 578 211 l 578 190 q 597 75 578 117 q 626 35 607 56 q 675 -7 646 15 q 699 -24 682 -14 l 894 125 l 865 158 q 822 139 838 139 q 769 250 769 139 l 769 771 l 833 831 l 669 975 l 508 831 l 578 771 l 578 261 l 439 136 l 351 207 l 351 771 l 418 831 l 256 975 m 596 1322 l 388 1089 l 699 1151 l 768 1322 l 596 1322 z "},"û":{"ha":900,"x_min":53,"x_max":894,"o":"m 256 975 l 53 796 l 79 767 l 117 796 l 158 767 l 158 289 q 150 186 158 208 q 104 151 142 167 l 104 125 q 321 -24 204 81 l 578 211 l 578 190 q 597 75 578 117 q 626 35 607 56 q 675 -7 646 15 q 699 -24 682 -14 l 894 125 l 865 158 q 822 139 838 139 q 769 250 769 139 l 769 771 l 833 831 l 669 975 l 508 831 l 578 771 l 578 261 l 439 136 l 351 207 l 351 771 l 418 831 l 256 975 m 474 1410 l 190 1115 l 233 1093 l 386 1249 l 675 1093 l 801 1222 l 474 1410 z "},"ü":{"ha":900,"x_min":53,"x_max":894,"o":"m 256 975 l 53 796 l 79 767 l 117 796 l 158 767 l 158 289 q 150 186 158 208 q 104 151 142 167 l 104 125 q 321 -24 204 81 l 578 211 l 578 190 q 597 75 578 117 q 626 35 607 56 q 675 -7 646 15 q 699 -24 682 -14 l 894 125 l 865 158 q 822 139 838 139 q 769 250 769 139 l 769 771 l 833 831 l 669 975 l 508 831 l 578 771 l 578 261 l 439 136 l 351 207 l 351 771 l 418 831 l 256 975 m 274 1339 l 151 1215 l 274 1092 l 399 1215 l 274 1339 m 643 1339 l 517 1215 l 643 1092 l 765 1215 l 643 1339 z "},"ý":{"ha":793,"x_min":28,"x_max":768,"o":"m 228 975 l 28 807 l 53 779 l 63 788 q 113 811 90 811 q 157 761 149 811 q 158 735 158 754 q 158 683 158 715 l 158 247 q 147 114 158 151 q 86 11 136 78 q 44 -53 53 -31 q 32 -128 32 -85 q 85 -244 32 -203 q 236 -286 139 -286 q 400 -256 333 -286 q 469 -187 469 -226 q 457 -158 469 -171 q 428 -146 444 -146 q 357 -189 400 -146 q 219 -244 301 -244 q 119 -213 157 -244 q 81 -132 81 -182 q 119 -36 81 -75 q 279 75 157 1 q 649 356 542 228 q 754 646 754 482 q 626 967 754 839 l 356 751 l 356 768 q 328 886 356 843 q 228 975 301 929 m 353 169 l 353 700 l 488 807 q 563 569 563 700 q 504 349 563 458 q 353 169 449 240 m 596 1322 l 388 1089 l 699 1151 l 768 1322 l 596 1322 z "},"ÿ":{"ha":793,"x_min":28,"x_max":765,"o":"m 228 975 l 28 807 l 53 779 l 63 788 q 113 811 90 811 q 157 761 149 811 q 158 735 158 754 q 158 683 158 715 l 158 247 q 147 114 158 151 q 86 11 136 78 q 44 -53 53 -31 q 32 -128 32 -85 q 85 -244 32 -203 q 236 -286 139 -286 q 400 -256 333 -286 q 469 -187 469 -226 q 457 -158 469 -171 q 428 -146 444 -146 q 357 -189 400 -146 q 219 -244 301 -244 q 119 -213 157 -244 q 81 -132 81 -182 q 119 -36 81 -75 q 279 75 157 1 q 649 356 542 228 q 754 646 754 482 q 626 967 754 839 l 356 751 l 356 768 q 328 886 356 843 q 228 975 301 929 m 353 169 l 353 700 l 488 807 q 563 569 563 700 q 504 349 563 458 q 353 169 449 240 m 274 1339 l 151 1215 l 274 1092 l 399 1215 l 274 1339 m 643 1339 l 517 1215 l 643 1092 l 765 1215 l 643 1339 z "},"":{"ha":2011,"x_min":32,"x_max":1981,"o":"m 1981 -51 l 1981 1111 l 32 1111 l 32 -51 l 1981 -51 m 1946 779 q 1938 742 1946 760 q 1915 711 1929 725 q 1883 690 1901 697 q 1844 682 1865 682 l 1642 682 q 1593 619 1593 682 l 1593 200 q 1619 142 1593 156 l 1619 64 q 1519 183 1519 86 l 1519 629 q 1679 765 1519 765 q 1746 761 1701 765 q 1814 757 1792 757 q 1871 786 1871 757 q 1814 813 1871 813 q 1785 812 1803 813 q 1746 810 1768 811 q 1708 808 1724 808 q 1681 807 1692 807 q 1519 929 1519 807 l 1519 1111 l 1599 1111 l 1599 929 q 1650 881 1599 881 l 1857 881 q 1920 852 1894 881 q 1946 779 1946 824 m 1408 189 q 1376 100 1408 133 q 1288 67 1343 67 l 897 67 q 828 94 856 67 q 800 164 800 122 q 825 237 800 208 q 890 265 850 265 l 1278 265 l 1278 192 l 903 192 q 875 167 875 192 q 906 138 875 138 l 1253 138 q 1338 200 1338 138 l 1338 306 q 1275 368 1338 368 l 928 368 q 835 403 869 368 q 800 496 800 438 l 800 619 q 837 722 800 682 q 936 761 874 761 l 1278 761 q 1403 656 1382 761 l 1333 656 q 1272 685 1304 685 l 933 685 q 876 624 876 685 l 876 494 q 933 440 876 440 l 1275 440 q 1373 408 1338 440 q 1408 318 1408 376 l 1408 189 m 704 1111 l 704 163 q 674 89 704 119 q 601 58 643 58 q 529 89 557 58 q 501 165 501 119 q 501 310 501 253 q 499 400 500 368 q 378 528 497 413 l 244 658 q 208 678 225 678 q 185 669 194 678 q 174 624 174 632 l 174 194 q 224 136 174 136 l 335 136 q 351 146 342 139 q 369 164 360 153 l 443 164 q 338 64 424 64 l 224 64 q 101 196 101 64 l 101 656 q 134 724 101 699 q 215 750 167 750 q 286 724 260 750 l 535 478 q 578 375 578 436 l 578 164 q 604 136 578 136 q 621 146 613 136 q 629 164 629 156 l 626 1111 l 704 1111 z "},"":{"ha":539,"x_min":85,"x_max":551,"o":"m 356 194 l 356 1176 l 521 1135 l 551 1288 l 361 1336 q 244 1241 294 1279 q 158 1181 193 1203 l 158 935 l 85 935 l 85 831 l 158 831 l 158 315 q 156 255 158 279 q 151 217 154 231 q 96 142 142 168 l 96 121 q 333 -24 222 79 l 540 142 l 515 167 l 454 121 q 404 158 429 140 q 356 194 379 176 z "}}}
